<svg width="48" height="48" viewBox="0 0 48 48" fill="none" xmlns="http://www.w3.org/2000/svg">
<path d="M11.499 43.9177C11.4806 44.3532 11.1151 44.7007 10.6661 44.6834C10.2246 44.6648 9.88181 44.2919 9.90041 43.8505C10.1295 38.4007 7.1547 32.9685 1.93237 30.4454C1.2383 30.1101 1.39929 29.1182 2.07137 28.9179C6.47132 27.6063 9.53412 24.008 9.65302 18.7169C9.66292 18.2752 10.0271 17.9252 10.4708 17.9351C10.9125 17.945 11.2625 18.3112 11.2526 18.7529C11.1353 23.9722 8.43496 27.9302 4.1484 29.8498C9.19423 33.0272 11.7204 38.6467 11.499 43.9177ZM40.6987 37.2844H39.3487C38.9069 37.2844 38.5488 37.6425 38.5488 38.0843C38.5488 38.5261 38.9069 38.8843 39.3487 38.8843H40.6987C41.1405 38.8843 41.4987 38.5261 41.4987 38.0843C41.4987 37.6425 41.1405 37.2844 40.6987 37.2844ZM36.1988 38.0843C36.1988 37.6425 35.8406 37.2844 35.3989 37.2844H22.3993C21.9575 37.2844 21.5993 37.6425 21.5993 38.0843C21.5993 38.5261 21.9575 38.8843 22.3993 38.8843H35.3989C35.8406 38.8843 36.1988 38.5262 36.1988 38.0843ZM38.1988 42.8842H33.3656C32.9238 42.8842 32.5657 43.2424 32.5657 43.6841C32.5657 44.1259 32.9238 44.4841 33.3656 44.4841H38.1988C38.6405 44.4841 38.9987 44.1259 38.9987 43.6841C38.9987 43.2424 38.6405 42.8842 38.1988 42.8842ZM29.1658 42.8842H25.9992C25.5574 42.8842 25.1992 43.2424 25.1992 43.6841C25.1992 44.1259 25.5574 44.4841 25.9992 44.4841H29.1658C29.6075 44.4841 29.9657 44.1259 29.9657 43.6841C29.9657 43.2424 29.6075 42.8842 29.1658 42.8842ZM47.1989 31.6983L20.6332 31.6842C20.1898 31.6842 19.833 32.0433 19.8328 32.4838C19.8326 32.9256 20.1906 33.284 20.6323 33.2842L47.1982 33.2983C47.6413 33.2983 47.9983 32.9393 47.9985 32.4987C47.9986 32.0569 47.6407 31.6985 47.1989 31.6983ZM13.7009 13.5596C13.3554 13.835 13.2986 14.3384 13.574 14.6838C17.842 20.0376 18.291 28.0755 13.0926 33.9326C12.633 34.4505 13.0071 35.2636 13.6906 35.2636C13.9114 35.2636 14.1312 35.1727 14.2892 34.9947C16.46 32.5488 17.806 29.7269 18.2898 26.6075C19.3228 19.947 15.8989 15.0338 14.8249 13.6866C14.5498 13.341 14.0464 13.2842 13.7009 13.5596ZM11.0232 15.0855L1.77298 14.8134C2.96584 10.627 7.36559 9.75868 10.2305 11.8332C10.5884 12.0924 11.0886 12.0122 11.3476 11.6544C11.6067 11.2965 11.5267 10.7964 11.1688 10.5374C8.93564 8.9203 5.97164 8.70251 3.61782 9.98247C0.475623 11.6909 0.0430376 15.1193 0.0041389 15.5046C-0.0426595 15.9668 0.313229 16.3711 0.776513 16.3848L10.9762 16.6847C11.4164 16.698 11.7863 16.3513 11.7993 15.9087C11.8122 15.467 11.4648 15.0984 11.0232 15.0855ZM23.593 14.8851C23.5461 14.5127 23.0424 11.2025 19.8463 9.66448C18.5497 9.0405 17.0875 8.86811 15.6174 9.166C15.1843 9.25369 14.9045 9.67588 14.9922 10.1089C15.08 10.5419 15.5023 10.8217 15.9351 10.734C18.5298 10.2087 20.9302 11.593 21.7999 14.2381L18.5063 14.4166C18.0651 14.4405 17.7269 14.8175 17.7508 15.2587C17.7739 15.6851 18.1269 16.0154 18.5489 16.0154C18.5837 16.0154 22.8077 15.7858 22.8426 15.7839C23.3064 15.7588 23.6508 15.345 23.593 14.8851ZM15.0526 5.30333C16.8283 4.43015 19.1535 5.05683 20.5815 6.79348C20.862 7.13476 21.3661 7.18376 21.7074 6.90327C22.0487 6.62268 22.0978 6.1186 21.8172 5.77731C19.2359 2.63801 14.3715 2.30833 12.1227 5.9151C10.5421 4.45515 8.39366 3.76708 6.27733 4.09487C3.05444 4.59405 1.48139 7.18566 1.1988 7.70015C0.986106 8.08733 1.1276 8.57372 1.51479 8.78641C1.90158 8.999 2.38826 8.85791 2.60105 8.47042C2.73545 8.22573 3.98741 6.0685 6.52222 5.67591C8.32366 5.39702 10.161 6.0795 11.4092 7.46785C11.2939 7.82944 11.2359 8.11023 11.2119 8.24553C11.1249 8.73561 11.502 9.1853 12.0004 9.1853C12.381 9.1853 12.7184 8.9126 12.7872 8.52492C12.8292 8.28873 13.2489 6.1904 15.0526 5.30333ZM30.506 17.3058C30.506 13.7257 33.4186 10.813 36.9988 10.813C40.579 10.813 43.4916 13.7256 43.4916 17.3058C43.4916 20.886 40.579 23.7986 36.9988 23.7986C33.4186 23.7986 30.506 20.8859 30.506 17.3058ZM32.106 17.3058C32.106 20.0037 34.3009 22.1987 36.9988 22.1987C39.6967 22.1987 41.8916 20.0037 41.8916 17.3058C41.8916 14.6079 39.6967 12.413 36.9988 12.413C34.3009 12.413 32.106 14.6079 32.106 17.3058ZM43.975 23.6056C43.5084 24.1221 43.8817 24.942 44.5682 24.942C44.7866 24.942 45.0041 24.8531 45.162 24.6784C48.0424 21.4908 48.7874 16.9341 47.1337 13.0241C46.9616 12.6173 46.4924 12.4266 46.0853 12.5989C45.6784 12.771 45.488 13.2404 45.6601 13.6472C47.0709 16.9829 46.4392 20.8786 43.975 23.6056ZM34.8868 8.14413C37.9525 7.44055 41.2626 8.28723 43.6302 10.644C43.7863 10.7994 43.9905 10.877 44.1946 10.877C44.9013 10.877 45.2665 10.0154 44.7589 9.51008C41.9992 6.76298 38.1292 5.75851 34.5291 6.58478C34.0984 6.68358 33.8295 7.11276 33.9283 7.54345C34.0269 7.97394 34.4561 8.24303 34.8868 8.14413ZM26.9835 19.4061C27.4218 19.35 27.7316 18.9494 27.6756 18.5111C27.2668 15.3162 28.5018 12.1547 30.9784 10.0869C31.3176 9.80368 31.363 9.29919 31.0798 8.96C30.7965 8.62071 30.292 8.57572 29.953 8.85861C27.0598 11.2743 25.6103 14.9708 26.0886 18.7139C26.1445 19.1516 26.5444 19.4621 26.9835 19.4061ZM39.4104 26.3935C37.3578 26.9368 35.0602 26.7916 32.9786 25.8051C32.5793 25.6158 32.1024 25.7863 31.9132 26.1855C31.724 26.5847 31.8943 27.0618 32.2936 27.251C34.713 28.3975 37.3983 28.581 39.8199 27.9403C40.247 27.8273 40.5016 27.3894 40.3886 26.9623C40.2755 26.5351 39.8377 26.2806 39.4104 26.3935Z" fill="white"/>
</svg>
