<svg width="48" height="48" viewBox="0 0 48 48" fill="none" xmlns="http://www.w3.org/2000/svg">
<g clip-path="url(#clip0_1_267)">
<path d="M12.4922 43.2535C12.3562 43.6738 12.5865 44.1249 13.0069 44.261C13.4264 44.3966 13.8783 44.1667 14.0144 43.7463C16.9619 34.6423 31.0403 34.6392 33.9861 43.7461C34.0956 44.0847 34.4094 44.3001 34.747 44.3001C35.2894 44.3001 35.6755 43.7703 35.5083 43.2537C32.0866 32.6742 15.9189 32.669 12.4922 43.2535Z" fill="white"/>
<path d="M45.7 30.7C46.1418 30.7 46.5 30.3418 46.5 29.9V17.4C46.5 14.3121 43.9879 11.8 40.9 11.8H29.6V10.2C29.6 9.7589 29.9589 9.4 30.4 9.4H36.2C36.4567 9.4 36.6917 9.5188 36.8445 9.726C37.1068 10.0814 37.6078 10.1568 37.9633 9.8945C38.3188 9.632 38.3943 9.1311 38.1319 8.7757C37.6808 8.1647 36.9586 7.8 36.2 7.8H32.5289C32.149 5.6438 30.2635 4 28 4H20C19.4202 4 18.8546 4.1066 18.3189 4.3171C17.9077 4.4786 17.7052 4.943 17.8668 5.3542C18.0284 5.7654 18.4926 5.9677 18.9039 5.8063C19.2524 5.6694 19.6212 5.6 20 5.6H28C29.3771 5.6 30.5397 6.5331 30.8908 7.8H30.4C29.0767 7.8 28 8.8767 28 10.2V11.8H20V10.2C20 8.8767 18.9233 7.8 17.6 7.8H13.0471C13.4455 4.3157 16.4109 1.6 20 1.6H28C30.6502 1.6 33.043 3.0688 34.2447 5.4335C34.4449 5.8273 34.9264 5.9842 35.3204 5.7842C35.7142 5.584 35.8713 5.1025 35.6711 4.7085C34.195 1.8042 31.2557 0 28 0H20C15.5184 0 11.8285 3.4462 11.4364 7.8275C10.285 8.0033 9.4 9.0002 9.4 10.2V11.8H7.1C4.0121 11.8 1.5 14.3121 1.5 17.4V42.4C1.5 45.4879 4.0121 48 7.1 48H40.9C43.9879 48 46.5 45.4879 46.5 42.4V35.2C46.5 34.7582 46.1418 34.4 45.7 34.4H42.2C41.7589 34.4 41.4 34.0411 41.4 33.6V26.1C41.4 25.7447 41.638 25.4284 41.9788 25.3308C42.4035 25.2092 42.6492 24.7662 42.5275 24.3414C42.4058 23.9167 41.9628 23.6709 41.5381 23.7927C40.5147 24.0857 39.8 25.0346 39.8 26.1V33.6C39.8 34.9233 40.8767 36 42.2 36H44.9V42.4C44.9 44.6056 43.1056 46.4 40.9 46.4H8.9626C9.4156 37.6669 15.5513 33.5538 21.2716 32.6206C27.5113 31.6032 35.4616 34.063 38.1767 41.8692C38.3217 42.2865 38.7779 42.5073 39.1951 42.362C39.6124 42.2169 39.8331 41.7609 39.6879 41.3436C34.2496 25.7065 8.2974 27.5105 7.3613 46.4H7.1C4.8944 46.4 3.1 44.6056 3.1 42.4V25.3H5.8C6.2411 25.3 6.6 25.6589 6.6 26.1V33.6C6.6 33.9037 6.4314 34.1775 6.1601 34.3147C5.7658 34.5139 5.6077 34.9952 5.807 35.3895C6.006 35.7832 6.4868 35.9423 6.8818 35.7426C7.6948 35.3318 8.2 34.5107 8.2 33.6V26.1C8.2 24.7767 7.1233 23.7 5.8 23.7H3.1V17.4C3.1 15.1944 4.8944 13.4 7.1 13.4H14.9129C15.3547 13.4 15.7129 13.0418 15.7129 12.6C15.7129 12.1582 15.3547 11.8 14.9129 11.8H11V10.2C11 9.7589 11.3589 9.4 11.8 9.4H17.6C18.0411 9.4 18.4 9.7589 18.4 10.2V12.6C18.4 13.0418 18.7582 13.4 19.2 13.4H40.9C43.1056 13.4 44.9 15.1944 44.9 17.4V29.9C44.9 30.3418 45.2582 30.7 45.7 30.7Z" fill="white"/>
<path d="M28.7655 23.1656C28.4531 23.4781 28.4531 23.9845 28.7655 24.297C29.078 24.6093 29.5844 24.6093 29.8969 24.297C30.3503 23.8438 30.5999 23.241 30.5999 22.6V21.6C30.5999 20.2767 29.5232 19.2 28.1999 19.2H26.8999V17.9C26.8999 16.5767 25.8232 15.5 24.4999 15.5H23.4999C22.1766 15.5 21.0999 16.5767 21.0999 17.9V19.2H19.7999C18.4766 19.2 17.3999 20.2767 17.3999 21.6V22.6C17.3999 23.9233 18.4766 25 19.7999 25H21.0999V26.3C21.0999 27.6233 22.1766 28.7 23.4999 28.7H24.4999C25.8232 28.7 26.8999 27.6233 26.8999 26.3V24.2C26.8999 23.7582 26.5417 23.4 26.0999 23.4C25.6581 23.4 25.2999 23.7582 25.2999 24.2V26.3C25.2999 26.7411 24.941 27.1 24.4999 27.1H23.4999C23.0588 27.1 22.6999 26.7411 22.6999 26.3V24.2C22.6999 23.7582 22.3417 23.4 21.8999 23.4H19.7999C19.3588 23.4 18.9999 23.0411 18.9999 22.6V21.6C18.9999 21.1589 19.3588 20.8 19.7999 20.8H21.8999C22.3417 20.8 22.6999 20.4418 22.6999 20V17.9C22.6999 17.4589 23.0588 17.1 23.4999 17.1H24.4999C24.941 17.1 25.2999 17.4589 25.2999 17.9V20C25.2999 20.4418 25.6581 20.8 26.0999 20.8H28.1999C28.641 20.8 28.9999 21.1589 28.9999 21.6V22.6C28.9999 22.8137 28.9167 23.0146 28.7655 23.1656Z" fill="white"/>
</g>
<defs>
<clipPath id="clip0_1_267">
<rect width="48" height="48" fill="white"/>
</clipPath>
</defs>
</svg>
