<svg width="48" height="48" viewBox="0 0 48 48" fill="none" xmlns="http://www.w3.org/2000/svg">
<g clip-path="url(#clip0_1_272)">
<path d="M43.4442 26.2292C42.1074 24.9343 40.0856 24.7408 38.5275 25.7589L36.9359 26.799C35.2902 24.919 33.0279 23.7662 30.5477 23.5411V15.1576C34.3636 14.7565 37.3477 11.5204 37.3477 7.6C37.3477 3.4094 33.9383 0 29.7477 0C25.5571 0 22.1477 3.4094 22.1477 7.6C22.1477 9.8495 23.1362 11.9707 24.8595 13.4196C25.1978 13.7039 25.7024 13.6603 25.9866 13.3221C26.271 12.9839 26.2273 12.4793 25.8891 12.1949C24.5283 11.0508 23.7477 9.376 23.7477 7.6C23.7477 4.2916 26.4393 1.6 29.7477 1.6C33.0561 1.6 35.7477 4.2916 35.7477 7.6C35.7477 10.9084 33.0561 13.6 29.7477 13.6C29.3059 13.6 28.9477 13.9582 28.9477 14.4V16.7261C28.0978 15.9643 26.9762 15.5 25.7477 15.5H24.1477C23.7059 15.5 23.3477 15.8582 23.3477 16.3V17.9C23.3477 19.6719 24.3183 21.2935 25.8808 22.1319C26.2726 22.3421 26.7565 22.1921 26.964 21.8053C27.173 21.416 27.0267 20.931 26.6374 20.7221C25.5951 20.1628 24.9477 19.0815 24.9477 17.9V17.1H25.7477C27.5122 17.1 28.9477 18.5355 28.9477 20.3V23.5265C27.6231 23.6226 26.3236 23.989 25.1526 24.6024C24.7612 24.8074 24.6101 25.2909 24.8151 25.6823C25.0202 26.0737 25.5038 26.2247 25.895 26.0198C28.9995 24.3936 33.0104 24.9083 35.5805 27.6848L34.0247 28.7014C33.6548 28.9431 33.5509 29.4389 33.7926 29.8087C34.0343 30.1785 34.53 30.2825 34.8999 30.0408L39.4026 27.0984C40.3305 26.492 41.5346 26.6072 42.3308 27.3785C43.1231 28.146 43.2787 29.3419 42.7094 30.2867L35.7 41.9193C34.4327 44.0226 32.1246 45.2034 29.6778 45.0011L14.2475 43.7254V33.7129C14.2475 33.2711 13.8893 32.9129 13.4475 32.9129C13.0057 32.9129 12.6475 33.2711 12.6475 33.7129V45.3893C12.6475 45.9466 12.1941 46.4 11.6369 46.4H5.95826C5.40106 46.4 4.94766 45.9466 4.94766 45.3893V28.9107C4.94766 28.3534 5.40106 27.9 5.95826 27.9H11.637C12.1942 27.9 12.6476 28.3534 12.6476 28.9107C12.6476 30.2149 12.6474 30.0024 12.6487 30.0503C12.662 30.5545 13.135 30.9255 13.6339 30.8061C13.8284 30.7595 13.4426 30.9853 18.7943 27.5144C19.3734 27.1388 20.1293 27.1266 20.7201 27.4832L30.5973 33.4436C31.3299 33.8857 31.6558 34.7925 31.3721 35.5998C31.0702 36.459 30.1712 36.9635 29.2803 36.7734L21.4801 35.1082C21.0488 35.0162 20.623 35.2915 20.5308 35.7236C20.4385 36.1557 20.714 36.5808 21.1461 36.673L28.9463 38.3382C30.6215 38.6959 32.3136 37.747 32.8817 36.1302C33.4154 34.6114 32.8023 32.9055 31.4241 32.0737L21.5468 26.1133C20.4351 25.4425 19.013 25.4656 17.9237 26.1721L14.2249 28.5712C14.0578 27.2915 12.9615 26.3 11.637 26.3H5.95826C4.51866 26.3 3.34766 27.4711 3.34766 28.9107V45.3893C3.34766 46.8289 4.51876 48 5.95826 48H11.637C13.0142 48 14.2476 46.9123 14.2476 45.3308C14.2476 45.3308 29.9978 46.6235 30.222 46.6235C33.0236 46.6235 35.6044 45.1781 37.0705 42.7449L44.08 31.1124C45.036 29.526 44.7744 27.518 43.4442 26.2292Z" fill="white"/>
<path d="M29.7478 5.40005C30.9609 5.40005 31.9478 6.38695 31.9478 7.60005C31.9478 8.04185 32.306 8.40005 32.7478 8.40005C33.1896 8.40005 33.5478 8.04185 33.5478 7.60005C33.5478 5.50475 31.8431 3.80005 29.7478 3.80005C27.6525 3.80005 25.9478 5.50475 25.9478 7.60005C25.9478 9.69535 27.6525 11.4 29.7478 11.4C30.1896 11.4 30.5478 11.0418 30.5478 10.6C30.5478 10.1582 30.1896 9.80005 29.7478 9.80005C28.5347 9.80005 27.5478 8.81315 27.5478 7.60005C27.5478 6.38695 28.5347 5.40005 29.7478 5.40005Z" fill="white"/>
</g>
<defs>
<clipPath id="clip0_1_272">
<rect width="48" height="48" fill="white"/>
</clipPath>
</defs>
</svg>
