<svg width="48" height="48" viewBox="0 0 48 48" fill="none" xmlns="http://www.w3.org/2000/svg">
<g clip-path="url(#clip0_1_240)">
<path d="M30.3878 19.327C30.3107 18.8778 29.8839 18.5767 29.4349 18.6532C28.9857 18.7303 28.684 19.1569 28.761 19.6061L28.8924 20.3719C28.9758 20.8588 28.4662 21.2273 28.0306 20.998L24.1528 18.9593C23.9124 18.8329 23.6251 18.8329 23.3847 18.9593L19.5069 20.998C19.0707 21.2278 18.5619 20.858 18.6452 20.3719L19.3858 16.054C19.4317 15.7862 19.343 15.5132 19.1484 15.3236L16.0112 12.2655C15.658 11.9212 15.8523 11.3235 16.3404 11.2525L20.6759 10.6225C20.9447 10.5834 21.1771 10.4146 21.2972 10.171L23.2361 6.24242C23.4544 5.80018 24.083 5.80018 24.3013 6.24242L26.2402 10.171C26.3603 10.4146 26.5927 10.5834 26.8615 10.6225L31.197 11.2525C31.6852 11.3235 31.8793 11.9213 31.5262 12.2655L28.3892 15.3236C28.0628 15.6417 28.0561 16.1641 28.3742 16.4906C28.6923 16.817 29.2149 16.8237 29.5412 16.5055L32.6785 13.4475C34.0104 12.1493 33.2742 9.8866 31.4346 9.61921L27.5284 9.05153L25.7815 5.51206C24.9584 3.8442 22.5788 3.84502 21.7562 5.51206L20.0093 9.05153L16.1031 9.61921C14.2626 9.8868 13.528 12.1499 14.8592 13.4475L17.6858 16.2027L17.0185 20.093C16.7041 21.926 18.6295 23.3243 20.275 22.4591L23.7688 20.6223L27.2626 22.4591C28.909 23.3245 30.8335 21.9255 30.5192 20.093L30.3878 19.327Z" fill="white"/>
<path d="M20.6739 42.2231C20.2181 42.2231 19.8486 42.5927 19.8486 43.0484V47.1747C19.8486 47.6305 20.2181 48 20.6739 48C21.1297 48 21.4992 47.6305 21.4992 47.1747V43.0484C21.4992 42.5927 21.1298 42.2231 20.6739 42.2231Z" fill="white"/>
<path d="M20.6739 27.2651C20.2181 27.2651 19.8486 27.6346 19.8486 28.0904V39.2448C19.8486 39.7006 20.2181 40.0701 20.6739 40.0701C21.1297 40.0701 21.4992 39.7006 21.4992 39.2448V28.0904C21.4992 27.6346 21.1298 27.2651 20.6739 27.2651Z" fill="white"/>
<path d="M26.8636 32.0105C26.4078 32.0105 26.0383 32.38 26.0383 32.8358V44.08C26.0383 44.5358 26.4078 44.9053 26.8636 44.9053C27.3194 44.9053 27.6889 44.5358 27.6889 44.08V32.8358C27.6889 32.38 27.3195 32.0105 26.8636 32.0105Z" fill="white"/>
<path d="M26.8636 25.2019C26.4078 25.2019 26.0383 25.5714 26.0383 26.0272V29.2218C26.0383 29.6775 26.4078 30.047 26.8636 30.047C27.3194 30.047 27.6889 29.6775 27.6889 29.2218V26.0272C27.6889 25.5714 27.3195 25.2019 26.8636 25.2019Z" fill="white"/>
<path d="M6.18705 1.67981C9.79615 1.42408 13.1513 2.85592 15.3922 5.60715C15.5553 5.80749 15.7928 5.91126 16.0326 5.91126C16.7184 5.91126 17.1142 5.10776 16.672 4.56484C14.087 1.39117 10.2232 -0.25967 6.07058 0.0332995C5.61596 0.0654849 5.27338 0.460169 5.30556 0.914788C5.33775 1.36941 5.73315 1.70869 6.18705 1.67981Z" fill="white"/>
<path d="M10.0402 10.3393C10.4945 10.3647 10.8849 10.0167 10.9105 9.56172C10.9361 9.10659 10.5879 8.71706 10.1328 8.69138C6.7207 8.50022 3.42087 9.63651 0.840264 11.8922C0.497056 12.1922 0.462085 12.7135 0.76207 13.0567C1.06257 13.4003 1.58393 13.4344 1.92652 13.1349C4.18022 11.1648 7.06102 10.1729 10.0402 10.3393Z" fill="white"/>
<path d="M13.2236 17.3552C9.05064 19.3265 6.09382 23.3674 5.31404 28.1645C5.2409 28.6143 5.54635 29.0384 5.99623 29.1115C6.44796 29.1846 6.87039 28.8777 6.94322 28.4293C7.63583 24.1688 10.2472 20.5869 13.9287 18.8476C14.3408 18.6528 14.517 18.1609 14.3223 17.7489C14.1276 17.3366 13.6358 17.1605 13.2236 17.3552Z" fill="white"/>
<path d="M30.9846 5.72601C31.3363 6.01248 31.8565 5.96224 32.1456 5.60727C34.3865 2.85604 37.7413 1.42379 41.3507 1.67993C41.8047 1.71077 42.1999 1.36953 42.2321 0.914907C42.2643 0.460288 41.9218 0.0657069 41.4671 0.0334184C37.3148 -0.26017 33.4507 1.39139 30.8658 4.56506C30.578 4.91838 30.6311 5.43819 30.9846 5.72601Z" fill="white"/>
<path d="M37.4048 8.69161C36.9496 8.7172 36.6015 9.10672 36.6271 9.56196C36.6526 10.017 37.0425 10.3659 37.4973 10.3396C40.4753 10.1731 43.3573 11.1649 45.611 13.1352C45.7675 13.2719 45.9611 13.3391 46.1538 13.3391C46.9119 13.3391 47.271 12.3941 46.6974 11.8925C44.1168 9.63654 40.8156 8.49922 37.4048 8.69161Z" fill="white"/>
<path d="M34.3139 17.3549C33.9017 17.1602 33.4099 17.3365 33.2153 17.7486C33.0206 18.1607 33.1968 18.6527 33.6089 18.8472C35.4191 19.7024 37.0121 21.0234 38.2155 22.6672C38.3772 22.888 38.628 23.005 38.882 23.005C39.5444 23.005 39.9519 22.2449 39.5473 21.6921C38.1818 19.8271 36.3721 18.3273 34.3139 17.3549Z" fill="white"/>
<path d="M10.6762 38.3197C10.4552 38.5577 9.47689 39.1476 8.34968 40.6339C7.96789 41.1373 7.21803 41.1375 6.83604 40.6339C6.20656 39.8039 5.46661 39.0639 4.6367 38.4346C4.13349 38.0529 4.13298 37.303 4.6367 36.9209C5.46661 36.2915 6.20667 35.5515 6.83614 34.7215C7.19792 34.2447 7.8735 34.2283 8.26375 34.6222C8.58457 34.9462 9.10717 34.9485 9.43078 34.6275C9.75449 34.3068 9.75697 33.7842 9.43614 33.4605C8.33926 32.3534 6.48736 32.4502 5.52108 33.7243C4.98249 34.4344 4.3494 35.0675 3.63936 35.6059C2.26499 36.6481 2.26385 38.7065 3.63936 39.7498C4.3494 40.2883 4.98249 40.9212 5.52108 41.6314C6.56339 43.0059 8.62171 43.0068 9.66484 41.6314C10.7103 40.2531 11.4689 39.8923 11.8862 39.4425C12.1961 39.1084 12.1766 38.5862 11.8426 38.2762C11.5083 37.9661 10.9861 37.9852 10.6762 38.3197Z" fill="white"/>
<path d="M47.4406 29.1758C47.3981 28.4143 47.024 27.7122 46.4141 27.2498C45.7039 26.7112 45.0709 26.0782 44.5325 25.3682C43.4901 23.9937 41.4317 23.9926 40.3887 25.3682C39.8501 26.0783 39.217 26.7113 38.507 27.2498C37.1327 28.292 37.1315 30.3504 38.507 31.3936C39.217 31.9321 39.8501 32.5651 40.3887 33.2753C41.431 34.6497 43.4893 34.6507 44.5325 33.2753C44.8079 32.9121 44.7367 32.3945 44.3736 32.1191C44.0104 31.8435 43.4927 31.9147 43.2174 32.2779C42.8355 32.7812 42.0858 32.7814 41.7038 32.2779C41.0743 31.4479 40.3343 30.7078 39.5044 30.0786C39.0013 29.697 39.0007 28.9469 39.5044 28.5648C40.3343 27.9355 41.0744 27.1955 41.7039 26.3655C42.0858 25.8622 42.8355 25.862 43.2175 26.3655C43.8469 27.1954 44.5868 27.9354 45.4169 28.5648C45.6436 28.7368 45.7771 28.9864 45.7928 29.2679C45.8182 29.7228 46.2084 30.073 46.6628 30.0458C47.1176 30.0204 47.466 29.631 47.4406 29.1758Z" fill="white"/>
<path d="M38.2033 35.5993C37.7955 35.2828 37.4279 34.9153 37.1111 34.507C36.6056 33.8556 35.7634 33.5663 34.9653 33.7698C34.5237 33.8826 34.257 34.3318 34.3697 34.7734C34.4824 35.2152 34.9318 35.4816 35.3733 35.3691C35.5017 35.3367 35.6828 35.3586 35.8073 35.5189C36.2088 36.0363 36.6745 36.502 37.1915 36.9032C37.409 37.0721 37.409 37.3937 37.1915 37.5624C36.6742 37.9638 36.2086 38.4295 35.8072 38.9466C35.6384 39.1642 35.3168 39.1643 35.1479 38.9467C34.7465 38.4295 34.2809 37.9638 33.7637 37.5625C33.6219 37.4525 33.6007 37.3086 33.6007 37.2328C33.6007 36.7771 33.2312 36.4076 32.7755 36.4076C32.3197 36.4076 31.9502 36.7771 31.9502 37.2328C31.9502 37.8755 32.2423 38.4709 32.7518 38.8664C33.1599 39.183 33.5274 39.5506 33.8441 39.9587C34.6731 41.0267 36.2809 41.0284 37.1111 39.9586C37.4278 39.5506 37.7952 39.183 38.2034 38.8663C39.2715 38.0376 39.2731 36.4295 38.2033 35.5993Z" fill="white"/>
</g>
<defs>
<clipPath id="clip0_1_240">
<rect width="48" height="48" fill="white"/>
</clipPath>
</defs>
</svg>
