<svg width="48" height="48" viewBox="0 0 48 48" fill="none" xmlns="http://www.w3.org/2000/svg">
<g clip-path="url(#clip0_1_276)">
<path d="M35.1528 30.5517C35.5879 30.6285 36.0029 30.3379 36.0797 29.9029L36.4712 27.6846C36.5243 27.3835 36.4012 27.0784 36.1539 26.8986L30.4125 22.7231C30.1375 22.5231 29.7662 22.5188 29.4866 22.7123L27.7903 23.8867C27.5745 24.0362 27.4457 24.282 27.4457 24.5445V28.4554C26.3496 28.1626 25.1379 28.1252 23.9076 28.3806C23.475 28.4703 23.1971 28.8938 23.2868 29.3264C23.3765 29.759 23.8001 30.0369 24.2326 29.9472C27.5599 29.2568 30.7124 31.2563 30.3211 34.818C30.2692 35.2904 30.6386 35.7054 31.1173 35.7054C31.5199 35.7054 31.8666 35.4022 31.9115 34.9927C32.1729 32.6134 31.204 30.3639 29.0456 29.114V24.9636L29.9305 24.351L34.8087 27.8987L34.5041 29.6249C34.4272 30.0599 34.7177 30.4749 35.1528 30.5517Z" fill="white"/>
<path d="M15.8389 28.0828C16.5466 27.4948 17.4432 27.7118 17.481 27.7213C17.9095 27.8292 18.3442 27.5694 18.4521 27.1409C18.56 26.7124 18.3001 26.2777 17.8717 26.1698C17.5855 26.0978 16.0926 25.7917 14.8164 26.8522C13.9248 27.593 13.6683 28.5691 13.6092 29.2527C11.33 29.754 10.086 31.6197 10.2234 33.6543C10.252 34.0768 10.6035 34.4004 11.0208 34.4004C11.4861 34.4004 11.8509 34.007 11.8198 33.5464C11.7972 33.2124 11.8186 32.5606 12.2154 31.9469C12.9331 30.837 14.2931 30.7521 14.4458 30.7461C14.935 30.7268 15.2798 30.2874 15.2046 29.8229C15.198 29.7786 15.0551 28.7339 15.8389 28.0828Z" fill="white"/>
<path d="M18.1 7.22725C18.5418 7.22725 18.9 6.86905 18.9 6.42725V4.22725C18.9 3.78545 18.5418 3.42725 18.1 3.42725C17.6582 3.42725 17.3 3.78545 17.3 4.22725V6.42725C17.3 6.86905 17.6582 7.22725 18.1 7.22725Z" fill="white"/>
<path d="M5.0088 7.55879L6.8088 8.95879C6.9548 9.07229 7.1277 9.12739 7.2994 9.12739C8.0616 9.12739 8.3879 8.16009 7.7911 7.69589L5.9911 6.29589C5.6425 6.02479 5.1398 6.08759 4.8684 6.43619C4.5973 6.78489 4.6601 7.28749 5.0088 7.55879Z" fill="white"/>
<path d="M4.00001 19.9274C4.17521 19.9274 4.10431 19.9357 5.75311 19.3861C6.17221 19.2464 6.39881 18.7933 6.25911 18.3742C6.11951 17.9551 5.66631 17.7285 5.24721 17.8682L3.74721 18.3682C3.32811 18.5079 3.10151 18.961 3.24121 19.3801C3.35291 19.7154 3.66501 19.9274 4.00001 19.9274Z" fill="white"/>
<path d="M28.9004 9.12731C29.0721 9.12731 29.245 9.07231 29.391 8.95871L31.191 7.55871C31.5397 7.28741 31.6026 6.78481 31.3313 6.43601C31.06 6.08721 30.5575 6.02461 30.2086 6.29571L28.4086 7.69571C27.812 8.16011 28.1382 9.12731 28.9004 9.12731Z" fill="white"/>
<path d="M14.8 15.5273C14.3582 15.5273 14 15.8855 14 16.3273C14 16.7691 14.3582 17.1273 14.8 17.1273H22.8097C23.2515 17.1273 23.6097 16.7691 23.6097 16.3273C23.6097 15.8855 23.2515 15.5273 22.8097 15.5273H14.8Z" fill="white"/>
<path d="M45.6 37.7399H8.9C8.4582 37.7399 8.1 38.0981 8.1 38.5399C8.1 38.9817 8.4582 39.3399 8.9 39.3399H45.6C46.0411 39.3399 46.4 39.6988 46.4 40.1399V42.173C46.4 42.6141 46.0411 42.973 45.6 42.973H2.4C1.9589 42.973 1.6 42.6141 1.6 42.173V40.1399C1.6 39.6988 1.9589 39.3399 2.4 39.3399H3.6243C3.7492 39.3514 3.8751 39.3589 4.0024 39.3589C4.4442 39.3589 4.8024 39.0007 4.8024 38.5589C4.8024 38.0734 4.4262 37.7399 4.0024 37.7399H3.7003C2.2877 37.5652 1.2863 36.1692 1.6913 34.7699C2.1146 33.3088 3.4982 32.2721 5.0657 32.1807C5.5119 32.1547 5.85 31.768 5.817 31.3228C5.6933 29.6573 5.8094 26.4837 7.9767 23.9414C11.0222 20.3689 16.9298 19.5752 22.0238 22.0539C22.4122 22.243 22.8807 22.0894 23.0819 21.707C25.6883 16.7521 31.4456 14.2817 36.474 15.9605C41.9613 17.7926 45.4508 24.3908 43.1522 30.7173C42.9873 31.1711 43.2596 31.668 43.7324 31.7718C45.1134 32.0753 46.1911 32.9754 46.3734 34.4344C46.4282 34.8729 46.8285 35.1839 47.2665 35.129C47.7049 35.0742 48.0159 34.6744 47.9611 34.2359C47.7462 32.5165 46.6786 31.1514 44.9187 30.4659C46.9651 23.5468 43.0924 16.4834 36.9808 14.4428C31.447 12.5952 25.1577 15.1048 22.0384 20.3001C18.8907 18.9381 15.6337 18.6771 12.7429 19.3642L10.1555 17.0228C9.7585 16.6635 9.625 16.0879 9.8235 15.5906L11.0544 12.506C11.2509 12.0137 11.7204 11.6955 12.2505 11.6955H23.8856C24.4157 11.6955 24.8852 12.0137 25.0817 12.506L25.6492 13.9281C25.8129 14.3385 26.2784 14.5385 26.6887 14.3746C27.0991 14.2108 27.299 13.7454 27.1352 13.3351L26.5677 11.913C26.1271 10.8089 25.0743 10.0955 23.8856 10.0955H12.2503C11.0616 10.0955 10.0087 10.8089 9.5682 11.913L8.3373 14.9976C7.8923 16.1128 8.1915 17.4034 9.0818 18.2091L10.9781 19.9251C6.454 21.7445 4.0917 25.7903 4.1864 30.687C0.6417 31.4203 -1.3884 35.5063 1.1042 38.1213C0.4406 38.549 0 39.2938 0 40.1399V42.173C0 43.4964 1.0767 44.573 2.4 44.573H45.6C46.9233 44.573 48 43.4964 48 42.173V40.1399C48 38.8166 46.9233 37.7399 45.6 37.7399Z" fill="white"/>
</g>
<defs>
<clipPath id="clip0_1_276">
<rect width="48" height="48" fill="white"/>
</clipPath>
</defs>
</svg>
