<svg width="48" height="48" viewBox="0 0 48 48" fill="none" xmlns="http://www.w3.org/2000/svg">
<g clip-path="url(#clip0_1_256)">
<path d="M45.3374 36.4277V30.4243C45.3374 29.1848 44.3134 28.1654 43.0561 28.2393C42.6151 28.2651 42.2785 28.6436 42.3042 29.0846C42.3301 29.5256 42.7096 29.8628 43.1494 29.8366C43.465 29.8185 43.7373 30.0801 43.7373 30.4243C43.7373 37.1336 43.7274 36.6741 43.7592 36.8077C43.6876 40.8686 41.2852 44.4275 37.5971 45.906C36.7922 46.2287 37.0058 46.1336 36.8947 46.178C36.1575 46.4733 35.3453 46.4733 34.608 46.178L33.9294 45.9062C30.1849 44.4041 27.7652 40.7594 27.7652 36.6211V30.4243C27.7652 30.094 28.0252 29.8178 28.353 29.8366C30.686 29.9739 33.0558 29.5364 35.2501 28.5106C35.5687 28.3618 35.934 28.3617 36.2527 28.5107C37.3954 29.0446 38.6947 29.4301 39.2069 29.5162C39.579 29.5801 39.9302 29.3744 40.0721 29.0504C40.1741 28.8192 40.1402 30.5334 40.1402 3.1999C40.1402 1.43546 38.7048 0 36.9403 0H5.84131C4.07687 0 2.64141 1.43546 2.64141 3.1999C2.64141 39.5498 2.62691 38.0692 2.67581 38.2308C2.70521 38.3275 2.75371 38.4217 2.82211 38.5052C2.85521 38.5457 12.0753 47.7739 12.1664 47.8412C12.3008 47.9404 12.4622 47.9952 12.6287 47.9978C12.6703 47.9988 11.7529 47.9984 28.3632 47.9984C28.805 47.9984 29.1632 47.6402 29.1632 47.1984C29.1632 46.7566 28.805 46.3984 28.3632 46.3984H13.441V39.9355C13.441 38.4264 12.2133 37.1987 10.7043 37.1987H8.58943C8.14764 37.1987 7.78945 37.5569 7.78945 37.9987C7.78945 38.4405 8.14764 38.7987 8.58943 38.7987H10.7042C11.331 38.7987 11.8409 39.3087 11.8409 39.9355V45.2671L4.24116 37.6672V3.1999C4.24116 2.31773 4.95894 1.59995 5.84111 1.59995H36.9401C37.8223 1.59995 38.5401 2.31773 38.5401 3.1999V27.6852C37.9911 27.5139 37.4524 27.3053 36.9299 27.0613C36.1809 26.7111 35.3215 26.7111 34.5724 27.0613C32.6943 27.9389 30.5997 28.3656 28.4463 28.2393C27.1863 28.1656 26.1651 29.1867 26.1651 30.4243V36.6211C26.1651 41.2836 28.9206 45.6223 33.3339 47.3913C34.1415 47.715 34.7408 48 35.7511 48C36.7286 47.9998 37.3629 47.7236 38.1922 47.3911C42.5977 45.6252 45.3607 41.2928 45.3607 36.6211C45.3609 36.5544 45.3527 36.4896 45.3374 36.4277Z" fill="white"/>
<path d="M38.3745 35.0333L35.2985 38.1094L33.7609 36.7915C33.4256 36.504 32.9205 36.543 32.633 36.8783C32.3455 37.2137 32.3844 37.7187 32.7198 38.0063L34.8197 39.8062C35.1377 40.0788 35.6111 40.0594 35.906 39.7645L39.5059 36.1647C39.8183 35.8522 39.8183 35.3458 39.5059 35.0333C39.1934 34.721 38.687 34.721 38.3745 35.0333Z" fill="white"/>
<path d="M35.5403 17.5995C35.5403 17.1577 35.1821 16.7996 34.7403 16.7996H7.74114C7.29935 16.7996 6.94116 17.1577 6.94116 17.5995C6.94116 18.0413 7.29935 18.3995 7.74114 18.3995H34.7403C35.1821 18.3995 35.5403 18.0413 35.5403 17.5995Z" fill="white"/>
<path d="M32.1403 9.99964C32.5821 9.99964 32.9403 9.64145 32.9403 9.19967V7.19973C32.9403 5.87647 31.8636 4.7998 30.5404 4.7998H11.9409C10.6177 4.7998 9.54102 5.87647 9.54102 7.19973V11.1996C9.54102 12.5229 10.6177 13.5995 11.9409 13.5995H29.8017C30.2435 13.5995 30.6017 13.2413 30.6017 12.7996C30.6017 12.3578 30.2435 11.9996 29.8017 11.9996H11.9409C11.4999 11.9996 11.141 11.6407 11.141 11.1996V7.19973C11.141 6.75864 11.4999 6.39975 11.9409 6.39975H30.5404C30.9814 6.39975 31.3403 6.75864 31.3403 7.19973V9.19967C31.3403 9.64145 31.6985 9.99964 32.1403 9.99964Z" fill="white"/>
<path d="M13.1411 22.7993H10.7411C10.2994 22.7993 9.94116 23.1575 9.94116 23.5993C9.94116 24.0411 10.2994 24.3993 10.7411 24.3993H13.1411C13.5828 24.3993 13.941 24.0411 13.941 23.5993C13.941 23.1575 13.5828 22.7993 13.1411 22.7993Z" fill="white"/>
<path d="M13.1411 30.3992H10.7411C10.2994 30.3992 9.94116 30.7574 9.94116 31.1991C9.94116 31.6409 10.2994 31.9991 10.7411 31.9991H13.1411C13.5828 31.9991 13.941 31.6409 13.941 31.1991C13.941 30.7574 13.5828 30.3992 13.1411 30.3992Z" fill="white"/>
<path d="M32.9404 23.5993C32.9404 23.1575 32.5822 22.7993 32.1404 22.7993H17.7409C17.2991 22.7993 16.9409 23.1575 16.9409 23.5993C16.9409 24.0411 17.2991 24.3993 17.7409 24.3993H32.1404C32.5822 24.3993 32.9404 24.0411 32.9404 23.5993Z" fill="white"/>
<path d="M24.1407 30.3992H17.7409C17.2991 30.3992 16.9409 30.7574 16.9409 31.1991C16.9409 31.6409 17.2991 31.9991 17.7409 31.9991H24.1407C24.5825 31.9991 24.9407 31.6409 24.9407 31.1991C24.9407 30.7574 24.5825 30.3992 24.1407 30.3992Z" fill="white"/>
<path d="M24.1407 37.9988H17.7409C17.2991 37.9988 16.9409 38.357 16.9409 38.7988C16.9409 39.2405 17.2991 39.5987 17.7409 39.5987H24.1407C24.5825 39.5987 24.9407 39.2405 24.9407 38.7988C24.9407 38.357 24.5825 37.9988 24.1407 37.9988Z" fill="white"/>
</g>
<defs>
<clipPath id="clip0_1_256">
<rect width="48" height="48" fill="white"/>
</clipPath>
</defs>
</svg>
