<svg width="24" height="24" viewBox="0 0 24 24" fill="none" xmlns="http://www.w3.org/2000/svg">
<path d="M12 24C18.6274 24 24 18.6274 24 12C24 5.37258 18.6274 0 12 0C5.37258 0 0 5.37258 0 12C0 18.6274 5.37258 24 12 24Z" fill="url(#paint0_linear_19_3750)"/>
<path d="M14.5486 5.33325H9.45522C7.18322 5.33325 5.33789 7.17859 5.33789 9.45059V14.5439C5.33789 16.8159 7.18322 18.6613 9.45522 18.6613H14.5486C16.8206 18.6613 18.6659 16.8159 18.6659 14.5439V9.45059C18.6659 7.17859 16.8206 5.33325 14.5486 5.33325ZM17.1779 14.5493C17.1779 15.9999 15.9992 17.1839 14.5432 17.1839H9.44989C7.99922 17.1839 6.81522 16.0053 6.81522 14.5493V9.45592C6.81522 8.00525 7.99389 6.82125 9.44989 6.82125H14.5432C15.9939 6.82125 17.1779 7.99992 17.1779 9.45592V14.5493Z" fill="white"/>
<path d="M11.9998 8.5918C10.1225 8.5918 8.5918 10.1225 8.5918 11.9998C8.5918 13.8771 10.1225 15.4078 11.9998 15.4078C13.8771 15.4078 15.4078 13.8771 15.4078 11.9998C15.4078 10.1225 13.8771 8.5918 11.9998 8.5918ZM11.9998 14.0691C10.8585 14.0691 9.93046 13.1411 9.93046 11.9998C9.93046 10.8585 10.8585 9.93046 11.9998 9.93046C13.1411 9.93046 14.0691 10.8585 14.0691 11.9998C14.0691 13.1411 13.1411 14.0691 11.9998 14.0691Z" fill="white"/>
<path d="M15.7349 9.38403C16.2801 9.29566 16.6504 8.78207 16.562 8.2369C16.4736 7.69173 15.96 7.32143 15.4148 7.40981C14.8697 7.49818 14.4994 8.01177 14.5878 8.55694C14.6761 9.10211 15.1897 9.47241 15.7349 9.38403Z" fill="white"/>
<defs>
<linearGradient id="paint0_linear_19_3750" x1="2.86288" y1="21.1371" x2="19.9162" y2="4.08379" gradientUnits="userSpaceOnUse">
<stop stop-color="#FEE411"/>
<stop offset="0.0518459" stop-color="#FEDB16"/>
<stop offset="0.1381" stop-color="#FEC125"/>
<stop offset="0.2481" stop-color="#FE983D"/>
<stop offset="0.3762" stop-color="#FE5F5E"/>
<stop offset="0.5" stop-color="#FE2181"/>
<stop offset="1" stop-color="#9000DC"/>
</linearGradient>
</defs>
</svg>
