<svg width="64" height="64" viewBox="0 0 64 64" fill="none" xmlns="http://www.w3.org/2000/svg">
<path d="M32 64C49.6731 64 64 49.6731 64 32C64 14.3269 49.6731 0 32 0C14.3269 0 0 14.3269 0 32C0 49.6731 14.3269 64 32 64Z" fill="#2AA81A"/>
<path d="M43.29 20.7117C40.6272 18.0188 37.0894 16.3666 33.3152 16.0534C29.541 15.7403 25.7792 16.7868 22.709 19.004C19.6388 21.2213 17.4625 24.4632 16.573 28.1444C15.6835 31.8256 16.1394 35.7035 17.8584 39.078L16.1742 47.2549C16.1562 47.3365 16.1555 47.4211 16.1722 47.503C16.1889 47.585 16.2226 47.6625 16.2711 47.7307C16.3406 47.8338 16.4399 47.9133 16.5558 47.9584C16.6716 48.0036 16.7986 48.0122 16.9195 47.9833L24.9195 46.0844C28.2848 47.7583 32.1348 48.1839 35.7845 47.2852C39.4341 46.3865 42.6464 44.222 44.8496 41.1769C47.0529 38.1317 48.1041 34.4036 47.8162 30.656C47.5283 26.9084 45.9199 23.3846 43.2774 20.7117H43.29ZM40.789 40.657C38.9474 42.4953 36.5759 43.7102 34.0081 44.1309C31.4402 44.5516 28.8051 44.1569 26.4732 43.0022L25.3532 42.4465L20.4395 43.6086V43.5454L21.4753 38.5896L20.9279 37.5117C19.7356 35.1735 19.3146 32.5177 19.7253 29.9253C20.1361 27.333 21.3575 24.9374 23.2142 23.0822C25.5456 20.7533 28.7062 19.4451 32.0016 19.4451C35.297 19.4451 38.4576 20.7533 40.789 23.0822L40.8437 23.158C43.1448 25.4944 44.4294 28.6455 44.4175 31.9247C44.4057 35.204 43.0984 38.3457 40.7806 40.6654L40.789 40.657Z" fill="white"/>
<path d="M40.3559 37.0528C39.7538 38.0002 38.798 39.1581 37.6064 39.4486C35.5012 39.9538 32.297 39.4486 28.2843 35.7391L28.2338 35.6928C24.7433 32.4338 23.817 29.7181 24.0233 27.5665C24.1454 26.3412 25.1643 25.2381 26.0233 24.5138C26.1598 24.3987 26.3215 24.3171 26.4952 24.2755C26.6689 24.234 26.85 24.2337 27.0239 24.2746C27.1977 24.3155 27.3596 24.3965 27.4966 24.5112C27.6336 24.6258 27.7419 24.7709 27.8128 24.9349L29.1054 27.857C29.1898 28.0451 29.2214 28.2526 29.1969 28.4573C29.1725 28.662 29.0928 28.8562 28.9664 29.0191L28.3096 29.8612C28.1731 30.036 28.0917 30.2475 28.076 30.4688C28.0602 30.69 28.1108 30.9109 28.2212 31.1033C28.8451 32.0229 29.5916 32.853 30.4401 33.5707C31.353 34.4492 32.3883 35.191 33.5138 35.7728C33.7192 35.8556 33.9446 35.8754 34.1613 35.8296C34.378 35.7839 34.5762 35.6747 34.7307 35.5159L35.4843 34.7496C35.6277 34.5954 35.811 34.4839 36.0139 34.4274C36.2168 34.3709 36.4313 34.3717 36.6338 34.4296L39.7075 35.3096C39.8817 35.3592 40.0417 35.4491 40.1747 35.572C40.3077 35.6948 40.4099 35.8473 40.473 36.017C40.5362 36.1868 40.5585 36.369 40.5381 36.5489C40.5178 36.7288 40.4554 36.9015 40.3559 37.0528Z" fill="white"/>
</svg>
