<svg width="48" height="48" viewBox="0 0 48 48" fill="none" xmlns="http://www.w3.org/2000/svg">
<g clip-path="url(#clip0_54_2998)">
<path d="M45.5015 21.0889L41.6458 19.3282L38.2425 13.8987C37.2589 12.325 35.5278 11.3709 33.6688 11.3807H19.1705C17.4885 11.3807 15.895 12.1577 14.8721 13.4954L10.4754 19.2495L3.14753 21.2561C1.28852 21.7676 0 23.4692 0 25.3971V28.2003C0 30.5708 1.88852 32.5282 4.25901 32.5282H4.88851C5.64589 35.4495 8.62621 37.2003 11.5475 36.4429C13.4655 35.9413 14.9705 34.4462 15.4623 32.5282H31.9868C32.7442 35.4495 35.7245 37.2003 38.6458 36.4429C40.5639 35.9413 42.0688 34.4462 42.5606 32.5282H43.7409C46.1114 32.5282 47.9999 30.5708 47.9999 28.2003V25.0036C48.0097 23.3216 47.0261 21.7872 45.5015 21.0889ZM10.1705 34.6331C8.24261 34.6331 6.67868 33.0692 6.67868 31.1413C6.67868 29.2134 8.24261 27.6495 10.1705 27.6495C12.0983 27.6495 13.6623 29.2134 13.6623 31.1413C13.6721 33.0593 12.1082 34.6233 10.1705 34.6331ZM37.2688 34.6331C35.3409 34.6331 33.777 33.0692 33.777 31.1413C33.777 29.2134 35.3409 27.6495 37.2688 27.6495C39.1966 27.6495 40.7606 29.2134 40.7606 31.1413C40.7704 33.0593 39.2065 34.6233 37.2688 34.6331ZM43.7409 30.561H42.6983C42.3737 27.561 39.6688 25.3971 36.6688 25.7315C34.1212 26.0069 32.1147 28.0233 31.8393 30.561H15.6C15.2754 27.561 12.5705 25.3971 9.57047 25.7315C7.02294 26.0069 5.01638 28.0233 4.74097 30.561H4.24917C2.96065 30.561 1.95737 29.4888 1.95737 28.2003V25.3971C1.94754 24.3446 2.6459 23.4298 3.65901 23.1446L11.3213 21.0495C11.5278 20.9905 11.7147 20.8725 11.8426 20.6954L16.4262 14.6856C17.0852 13.8397 18.0983 13.3479 19.1705 13.3479H33.6688C34.8491 13.3381 35.9606 13.9381 36.5803 14.9413L40.1409 20.6266C40.2393 20.7938 40.3966 20.9217 40.5639 21.0003L44.6753 22.879C45.5015 23.2626 46.0327 24.0889 46.0229 25.0036V28.2003H46.0327C46.0327 29.4888 45.0294 30.561 43.7409 30.561Z" fill="white"/>
</g>
<defs>
<clipPath id="clip0_54_2998">
<rect width="48" height="48" fill="white"/>
</clipPath>
</defs>
</svg>
