<svg width="48" height="48" viewBox="0 0 48 48" fill="none" xmlns="http://www.w3.org/2000/svg">
<g clip-path="url(#clip0_54_3041)">
<path d="M48 16.3473C47.9989 15.6185 47.7846 14.8795 47.3107 14.2703L43.5074 9.40395C42.8704 8.59508 41.9011 8.18323 40.9325 8.18164C40.356 8.18164 39.769 8.32939 39.2504 8.65283L35.542 10.96C35.152 11.2087 34.4834 11.3795 33.8376 11.375C33.3358 11.3772 32.8509 11.2768 32.5308 11.1186L28.8993 9.35961C28.3135 9.07761 27.6606 8.96202 27.0039 8.96089C26.0609 8.9653 25.1059 9.19705 24.3384 9.72889L23.9147 10.0262C23.576 9.85714 23.0584 9.59961 22.4721 9.30786C21.7689 8.96314 20.9422 8.82411 20.107 8.82139C19.3526 8.82355 18.5984 8.9398 17.9362 9.21955L15.4627 10.275C15.0601 10.4495 14.4198 10.5635 13.7838 10.5607C13.1478 10.5635 12.5086 10.4495 12.106 10.275L9.63028 9.21898C9.17869 9.02642 8.69597 8.94411 8.21757 8.94355C7.66669 8.94411 7.1191 9.05267 6.61013 9.25883C6.10182 9.46611 5.62997 9.77211 5.25422 10.192L0.746722 15.2401C0.247128 15.798 -0.00102805 16.5005 3.20081e-06 17.1921C-0.00102805 18.0169 0.351847 18.8442 1.03247 19.424L5.23716 23.0113L3.24253 25.0921C2.69269 25.6659 2.41894 26.4099 2.41894 27.1456C2.41791 27.9283 2.72878 28.7186 3.34453 29.3005L3.74916 29.685C4.13044 30.0467 4.5886 30.2767 5.06803 30.3995C4.82757 30.8418 4.69613 31.3267 4.69716 31.8126C4.69613 32.5959 5.007 33.3857 5.62163 33.9682L5.6206 33.9677L6.02644 34.3538C6.60413 34.9014 7.353 35.1741 8.09082 35.1737C8.48738 35.1742 8.88441 35.0945 9.25753 34.9385C9.3885 35.4698 9.65897 35.9749 10.0844 36.3785L10.4903 36.7646C11.0679 37.3122 11.8156 37.5849 12.5546 37.5845C13.1323 37.585 13.7126 37.4148 14.2122 37.0843C14.3584 37.5545 14.6088 38 14.99 38.3622L15.3958 38.7484C15.9723 39.296 16.7212 39.5687 17.4592 39.5682C18.2451 39.5688 19.0388 39.26 19.625 38.648L21.3878 36.8072L23.7829 39.0238C24.3562 39.5555 25.092 39.8201 25.8184 39.8185C26.6164 39.8202 27.4214 39.5005 28.0088 38.8716L28.3912 38.462C28.7212 38.1076 28.9366 37.688 29.0616 37.2501L29.9893 38.1065C30.5636 38.636 31.2984 38.8995 32.0238 38.8989C32.8228 38.8995 33.6301 38.5798 34.2181 37.9505L34.5983 37.5413C35.0373 37.0723 35.2844 36.4913 35.3607 35.898C35.6056 35.9607 35.8538 36.0033 36.1041 36.0033C36.9031 36.0033 37.7081 35.6841 38.2967 35.0554L38.678 34.6462C39.2108 34.0751 39.476 33.3426 39.4748 32.6205C39.4748 32.3963 39.4427 32.1733 39.393 31.9529C40.0557 31.865 40.6983 31.5695 41.1869 31.0447L41.5692 30.6351C42.1021 30.064 42.3661 29.3315 42.3661 28.6088C42.3671 27.8136 42.0465 27.0112 41.4138 26.4266L40.6988 25.7661L47.1523 18.6308C47.7317 17.9885 47.999 17.1616 48 16.3473ZM5.81382 28.8812C5.47191 28.8801 5.1375 28.7579 4.87622 28.5103L4.47094 28.1258C4.19053 27.8607 4.05207 27.5079 4.05094 27.1457C4.05207 26.8059 4.17366 26.4742 4.42407 26.213L8.50932 21.9499C8.77547 21.6722 9.1306 21.5331 9.49491 21.5327C9.83578 21.5332 10.1691 21.656 10.4325 21.9041L10.8361 22.2891C10.8361 22.2891 11.2539 22.907 11.255 23.2698C11.2539 23.5414 11.1721 23.8059 11.0134 24.035C10.9998 24.0486 6.60413 28.6297 6.60413 28.6297C6.37069 28.7949 6.09469 28.88 5.81382 28.8812ZM9.0765 33.1334C8.81091 33.41 8.45635 33.5484 8.09203 33.5495C7.75013 33.549 7.41675 33.4263 7.15444 33.1787L6.7486 32.793L6.74757 32.7924C6.46941 32.5284 6.32972 32.1745 6.32972 31.8123C6.32972 31.4725 6.45244 31.1408 6.70163 30.8795C6.70163 30.8795 12.1472 25.211 12.193 25.1563C12.4533 24.906 12.7886 24.7767 13.1349 24.7761C13.4768 24.7767 13.8102 24.8989 14.0725 25.147L14.4784 25.5332C14.7576 25.7972 14.8962 26.1506 14.8973 26.5133C14.8961 26.8531 14.7735 27.1852 14.5241 27.4465L9.0765 33.1334ZM13.5397 35.5435C13.2746 35.8207 12.9202 35.9594 12.5558 35.9604C12.2138 35.9599 11.8805 35.8371 11.6182 35.589L11.2112 35.2033C10.932 34.9387 10.7923 34.5854 10.7923 34.2231C10.7923 33.92 10.8954 33.6259 11.0928 33.381L14.8852 29.4228C15.141 29.192 15.4616 29.0705 15.7939 29.0705C16.1358 29.071 16.4692 29.1932 16.7315 29.4413L17.1384 29.8275C17.4166 30.0915 17.5563 30.4449 17.5573 30.8071C17.5562 31.1475 17.4324 31.4796 17.1842 31.7403L13.5397 35.5435ZM20.7455 35.1258L18.4443 37.5275C18.1792 37.8045 17.8241 37.9431 17.4598 37.9442C17.1179 37.9436 16.7845 37.8209 16.5222 37.5727L16.1164 37.187C15.8382 36.923 15.6985 36.5691 15.6975 36.2069C15.6985 35.8665 15.8213 35.5343 16.0706 35.2742L18.3708 32.8726C18.6369 32.5955 18.9921 32.4564 19.3564 32.4559C19.6973 32.4564 20.0317 32.5786 20.294 32.8273L20.7009 33.213C20.9791 33.477 21.1177 33.8304 21.1188 34.1926C21.1175 34.5329 20.9948 34.865 20.7455 35.1258ZM40.7365 28.611C40.7361 28.9445 40.6165 29.2713 40.3744 29.5309L39.9931 29.94C39.7269 30.2247 39.3658 30.3687 38.9961 30.3693C38.6606 30.3687 38.3322 30.2509 38.0716 30.0099L31.6464 24.068L30.5354 25.2575L37.4127 31.6287C37.6991 31.8938 37.843 32.2538 37.8452 32.6214C37.843 32.9563 37.7246 33.2825 37.483 33.5421L37.1029 33.9513C36.8367 34.236 36.4756 34.3794 36.1058 34.3805C35.7704 34.3795 35.441 34.2611 35.1824 34.0217L28.7556 28.0798L27.6457 29.2694L33.3492 34.5438C33.6241 34.8072 33.7649 35.1579 33.7649 35.5178C33.7649 35.8517 33.6465 36.1783 33.4049 36.4374L33.0236 36.8465C32.7585 37.1313 32.3963 37.2753 32.0256 37.2763C31.689 37.2753 31.3607 37.1569 31.1011 36.9174L25.409 31.6622H25.4079L25.4069 31.6611L24.2992 32.8529L24.3003 32.8539L24.3216 32.8741L27.1725 35.5053C27.4251 35.7649 27.5559 36.0976 27.557 36.4417C27.5559 36.7739 27.4386 37.0989 27.197 37.3581L26.8157 37.7677C26.5495 38.0525 26.1895 38.1953 25.8208 38.1965C25.4854 38.1954 25.157 38.0776 24.8974 37.8371L22.4152 35.5386C22.6312 35.1149 22.7517 34.655 22.7517 34.1936C22.7528 33.4109 22.4419 32.6217 21.8273 32.0387L21.4203 31.6525C20.8438 31.1054 20.096 30.8322 19.3581 30.8332C19.3008 30.8332 19.243 30.8464 19.1869 30.8496C19.1869 30.836 19.1901 30.8218 19.1901 30.8082C19.1911 30.0255 18.2656 28.6521 18.2656 28.6521L17.8598 28.2671C17.4283 27.858 16.9019 27.6028 16.3544 27.5002C16.4673 27.1806 16.5311 26.8479 16.5311 26.5146C16.5311 25.7319 16.2213 24.9421 15.6067 24.3597L15.2008 23.9735C14.6231 23.426 13.8755 23.1527 13.1375 23.1532C13.0513 23.1532 12.9663 23.1707 12.8806 23.1784C12.8572 22.4268 12.5544 21.6757 11.9654 21.1161V21.1156L11.5607 20.7311C10.983 20.183 10.2353 19.9097 9.49735 19.9102C8.71022 19.9097 7.91775 20.2184 7.33153 20.8304L6.36722 21.8367L2.09541 18.1932C1.78838 17.9303 1.6351 17.567 1.63397 17.194C1.635 16.8815 1.74141 16.5755 1.96828 16.3214L6.47569 11.2734C6.65457 11.0727 6.91913 10.8911 7.22897 10.765C7.53882 10.639 7.89057 10.5698 8.21944 10.5703C8.50585 10.5703 8.77463 10.6221 8.9896 10.7149L11.4642 11.7708C12.1618 12.0648 12.9717 12.1853 13.7857 12.188C14.6005 12.1852 15.4094 12.0647 16.1071 11.7708L18.5806 10.7153C18.9619 10.549 19.5372 10.4459 20.1094 10.448C20.7421 10.4442 21.3758 10.5752 21.7434 10.7628C21.9769 10.8789 22.1983 10.9892 22.4039 11.0922L19.8813 12.8655C19.0707 13.4355 18.6338 14.342 18.635 15.2567C18.6339 15.8621 18.8258 16.4784 19.2164 17.0015L19.2154 17.0003L19.5486 17.4481C20.1813 18.2892 21.1679 18.7217 22.1541 18.7238C22.7109 18.7238 23.2782 18.5831 23.7838 18.2798L25.2924 17.3738C25.6001 17.1857 26.0648 17.0668 26.5452 17.069C27.1098 17.0657 27.6787 17.2326 28.0207 17.484L32.1943 20.4762C33.1232 21.1416 34.6361 22.376 35.4745 23.1527L40.3054 27.6192C40.5914 27.8844 40.7354 28.2428 40.7365 28.611ZM45.9411 17.545L39.5055 24.6612L36.5836 21.9603C35.6684 21.1154 34.1592 19.8833 33.1469 19.1562L28.9744 16.164C28.2669 15.6628 27.4008 15.4461 26.5445 15.443C25.8158 15.4451 25.0816 15.6039 24.4478 15.9813L22.9403 16.8873C22.7091 17.0263 22.4364 17.0973 22.1532 17.0978C21.647 17.0995 21.1403 16.8633 20.8579 16.4787L20.5257 16.0315L20.5246 16.0304C20.3479 15.7921 20.2656 15.5248 20.2643 15.2542C20.2665 14.8451 20.4552 14.4481 20.8208 14.1901L25.2813 11.056C25.667 10.7768 26.3531 10.581 27.0049 10.5859C27.4576 10.5837 27.8901 10.6747 28.1862 10.821L31.8176 12.58C32.4368 12.8773 33.1355 12.9989 33.8384 13.0006C34.7416 12.9962 35.6546 12.7999 36.4069 12.3379L40.1164 10.0302C40.3531 9.88245 40.6373 9.80605 40.9335 9.80605C41.4342 9.80502 41.936 10.0319 42.2201 10.4022L46.0234 15.2686C46.2427 15.5473 46.3697 15.9405 46.3697 16.348C46.3703 16.8037 46.2094 17.2521 45.9411 17.545Z" fill="white"/>
</g>
<defs>
<clipPath id="clip0_54_3041">
<rect width="48" height="48" fill="white"/>
</clipPath>
</defs>
</svg>
