<svg width="48" height="48" viewBox="0 0 48 48" fill="none" xmlns="http://www.w3.org/2000/svg">
<g clip-path="url(#clip0_54_3006)">
<path d="M47.6315 10.6913C47.3952 10.1325 47.0578 9.63188 46.6265 9.20156C46.1962 8.77031 45.6955 8.43281 45.1368 8.19656C44.5593 7.95188 43.9452 7.82812 43.3124 7.82812H4.6875C4.05469 7.82812 3.44063 7.95188 2.86313 8.19656C2.30438 8.43281 1.80375 8.77031 1.37344 9.20062C0.942187 9.63187 0.604688 10.1325 0.368437 10.6913C0.12375 11.2688 0 11.8828 0 12.5156V35.4844C0 36.1172 0.12375 36.7313 0.368437 37.3088C0.604688 37.8675 0.942187 38.3681 1.37344 38.7984C1.80375 39.2297 2.30438 39.5672 2.86313 39.8034C3.44063 40.0481 4.05469 40.1719 4.6875 40.1719H30C30.5175 40.1719 30.9375 39.7509 30.9375 39.2344C30.9375 38.7178 30.5175 38.2969 30 38.2969H4.6875C3.13969 38.2941 1.87781 37.0322 1.875 35.4844V13.4531H46.125V35.4844C46.1222 37.0322 44.8603 38.2941 43.3125 38.2969H29.5041C28.9875 38.2969 28.5666 38.7178 28.5666 39.2344C28.5666 39.7509 28.9875 40.1719 29.5041 40.1719H43.3125C43.9453 40.1719 44.5594 40.0481 45.1369 39.8034C45.6956 39.5672 46.1963 39.2297 46.6266 38.7984C47.0579 38.3681 47.3953 37.8675 47.6316 37.3088C47.8762 36.7313 48.0001 36.1172 48.0001 35.4844V12.5156C48 11.8828 47.8763 11.2688 47.6315 10.6913ZM4.6875 9.70312H43.3125C44.5317 9.70528 45.5731 10.489 45.9618 11.5781H2.03822C2.42691 10.489 3.46819 9.70528 4.6875 9.70312Z" fill="white"/>
<path d="M24.375 27.375H30.75C31.2666 27.375 31.6875 26.9541 31.6875 26.4375C31.6875 25.9209 31.2666 25.5 30.75 25.5H24.375C23.8584 25.5 23.4375 25.9209 23.4375 26.4375C23.4375 26.9541 23.8584 27.375 24.375 27.375Z" fill="white"/>
<path d="M24.375 23.625H37.0312C37.5478 23.625 37.9688 23.2041 37.9688 22.6875C37.9688 22.1709 37.5478 21.75 37.0312 21.75H24.375C23.8584 21.75 23.4375 22.1709 23.4375 22.6875C23.4375 23.2041 23.8584 23.625 24.375 23.625Z" fill="white"/>
<path d="M24.375 19.875H37.0312C37.5478 19.875 37.9688 19.4541 37.9688 18.9375C37.9688 18.4209 37.5478 18 37.0312 18H24.375C23.8584 18 23.4375 18.4209 23.4375 18.9375C23.4375 19.4541 23.8584 19.875 24.375 19.875Z" fill="white"/>
<path d="M5.15625 31.0312C5.15625 31.549 5.57597 31.9688 6.09375 31.9688H17.3438C17.8615 31.9688 18.2812 31.549 18.2812 31.0312C18.2812 28.4638 16.7984 26.2373 14.6449 25.1597C15.4409 24.3919 15.9375 23.3156 15.9375 22.125C15.9375 19.7988 14.045 17.9062 11.7188 17.9062C9.39253 17.9062 7.5 19.7988 7.5 22.125C7.5 23.3156 7.99659 24.3919 8.79263 25.1597C6.63909 26.2373 5.15625 28.4638 5.15625 31.0312ZM9.375 22.125C9.375 20.8327 10.4264 19.7812 11.7188 19.7812C13.0111 19.7812 14.0625 20.8327 14.0625 22.125C14.0625 23.4173 13.0111 24.4688 11.7188 24.4688C10.4264 24.4688 9.375 23.4173 9.375 22.125ZM11.7188 26.3438C13.9824 26.3438 15.8765 27.9568 16.3121 30.0938H7.12537C7.56103 27.9568 9.45506 26.3438 11.7188 26.3438Z" fill="white"/>
</g>
<defs>
<clipPath id="clip0_54_3006">
<rect width="48" height="48" fill="white"/>
</clipPath>
</defs>
</svg>
