<svg width="48" height="48" viewBox="0 0 48 48" fill="none" xmlns="http://www.w3.org/2000/svg">
<g clip-path="url(#clip0_54_2986)">
<path d="M37 48H9C6.244 48 4 45.756 4 43V9C4 6.244 6.244 4 9 4H37C39.756 4 42 6.244 42 9V43C42 45.756 39.756 48 37 48ZM9 6C7.346 6 6 7.346 6 9V43C6 44.654 7.346 46 9 46H37C38.654 46 40 44.654 40 43V9C40 7.346 38.654 6 37 6H9Z" fill="white"/>
<path d="M13 10C12.448 10 12 9.552 12 9V1C12 0.448 12.448 0 13 0C13.552 0 14 0.448 14 1V9C14 9.552 13.552 10 13 10Z" fill="white"/>
<path d="M24 10C23.448 10 23 9.552 23 9V1C23 0.448 23.448 0 24 0C24.552 0 25 0.448 25 1V9C25 9.552 24.552 10 24 10Z" fill="white"/>
<path d="M33 10C32.448 10 32 9.552 32 9V1C32 0.448 32.448 0 33 0C33.552 0 34 0.448 34 1V9C34 9.552 33.552 10 33 10Z" fill="white"/>
<path d="M35 36H13C12.448 36 12 35.552 12 35C12 34.448 12.448 34 13 34H35C35.552 34 36 34.448 36 35C36 35.552 35.552 36 35 36Z" fill="white"/>
<path d="M35 28H13C12.448 28 12 27.552 12 27C12 26.448 12.448 26 13 26H35C35.552 26 36 26.448 36 27C36 27.552 35.552 28 35 28Z" fill="white"/>
<path d="M25 20H13C12.448 20 12 19.552 12 19C12 18.448 12.448 18 13 18H25C25.552 18 26 18.448 26 19C26 19.552 25.552 20 25 20Z" fill="white"/>
</g>
<defs>
<clipPath id="clip0_54_2986">
<rect width="48" height="48" fill="white"/>
</clipPath>
</defs>
</svg>
