<svg width="48" height="48" viewBox="0 0 48 48" fill="none" xmlns="http://www.w3.org/2000/svg">
<path d="M23.6589 23.1218C26.8354 23.1218 29.5857 21.9825 31.8335 19.7347C34.0806 17.4873 35.2202 14.7374 35.2202 11.5605C35.2202 8.38477 34.0809 5.63452 31.8331 3.38635C29.5853 1.13928 26.8351 0 23.6589 0C20.4821 0 17.7322 1.13928 15.4847 3.38672C13.2373 5.63416 12.0977 8.3844 12.0977 11.5605C12.0977 14.7374 13.2373 17.4877 15.4847 19.7351C17.7329 21.9822 20.4832 23.1218 23.6589 23.1218ZM17.474 5.37561C19.1985 3.65112 21.2214 2.81287 23.6589 2.81287C26.0961 2.81287 28.1194 3.65112 29.8442 5.37561C31.5687 7.10046 32.4073 9.12378 32.4073 11.5605C32.4073 13.998 31.5687 16.021 29.8442 17.7458C28.1194 19.4707 26.0961 20.309 23.6589 20.309C21.2222 20.309 19.1992 19.4703 17.474 17.7458C15.7491 16.0214 14.9105 13.998 14.9105 11.5605C14.9105 9.12378 15.7491 7.10046 17.474 5.37561Z" fill="white"/>
<path d="M43.8871 36.9098C43.8223 35.9745 43.6912 34.9542 43.4982 33.8768C43.3033 32.7914 43.0525 31.7653 42.7522 30.8274C42.4417 29.858 42.0201 28.9008 41.4983 27.9834C40.9574 27.0312 40.3217 26.2021 39.6083 25.5199C38.8623 24.8062 37.949 24.2323 36.8928 23.8137C35.8403 23.3973 34.674 23.1864 33.4263 23.1864C32.9363 23.1864 32.4624 23.3875 31.5472 23.9833C30.984 24.3506 30.3252 24.7754 29.5898 25.2452C28.9611 25.6459 28.1093 26.0212 27.0571 26.3611C26.0306 26.6932 24.9884 26.8617 23.9594 26.8617C22.931 26.8617 21.8888 26.6932 20.8616 26.3611C19.8105 26.0216 18.9584 25.6462 18.3307 25.2456C17.6023 24.7802 16.9431 24.3553 16.3715 23.9829C15.457 23.3871 14.9832 23.186 14.4932 23.186C13.2451 23.186 12.0791 23.3973 11.027 23.8141C9.97156 24.2319 9.05786 24.8058 8.31116 25.5203C7.59778 26.2029 6.96204 27.0316 6.42151 27.9834C5.90039 28.9008 5.47852 29.8577 5.16797 30.8278C4.86804 31.7656 4.61719 32.7914 4.42236 33.8768C4.229 34.9528 4.09827 35.9734 4.03345 36.9109C3.96973 37.8275 3.9375 38.7815 3.9375 39.7454C3.9375 42.251 4.73401 44.2794 6.30469 45.7754C7.85596 47.2516 9.9082 48.0001 12.4047 48.0001H35.517C38.0127 48.0001 40.0649 47.2516 41.6166 45.7754C43.1876 44.2805 43.9841 42.2513 43.9841 39.745C43.9838 38.7778 43.9512 37.8239 43.8871 36.9098ZM39.6771 43.7374C38.6521 44.713 37.2913 45.1873 35.5166 45.1873H12.4047C10.6296 45.1873 9.2688 44.713 8.24414 43.7378C7.23889 42.7809 6.75037 41.4746 6.75037 39.7454C6.75037 38.8459 6.78003 37.9579 6.83936 37.1053C6.89722 36.2689 7.0155 35.3501 7.19092 34.3738C7.36414 33.4095 7.58459 32.5046 7.8468 31.6854C8.09839 30.8999 8.44153 30.1221 8.86707 29.3728C9.27319 28.6587 9.74048 28.046 10.2561 27.5524C10.7384 27.0906 11.3463 26.7126 12.0626 26.4292C12.7251 26.167 13.4696 26.0234 14.2778 26.0018C14.3763 26.0542 14.5518 26.1542 14.8359 26.3395C15.4142 26.7163 16.0807 27.1462 16.8175 27.6168C17.6481 28.1464 18.7181 28.6246 19.9966 29.0374C21.3036 29.46 22.6366 29.6746 23.9597 29.6746C25.2828 29.6746 26.6162 29.46 27.9225 29.0377C29.202 28.6243 30.2717 28.1464 31.1034 27.6161C31.8574 27.1342 32.5052 26.7167 33.0835 26.3395C33.3677 26.1545 33.5431 26.0542 33.6416 26.0018C34.4502 26.0234 35.1947 26.167 35.8575 26.4292C36.5735 26.7126 37.1814 27.0909 37.6637 27.5524C38.1793 28.0457 38.6466 28.6583 39.0527 29.3732C39.4786 30.1221 39.8221 30.9003 40.0734 31.6851C40.3359 32.5054 40.5568 33.4099 40.7296 34.3734C40.9047 35.3516 41.0233 36.2708 41.0812 37.1057V37.1064C41.1409 37.9557 41.1709 38.8434 41.1713 39.7454C41.1709 41.475 40.6824 42.7809 39.6771 43.7374Z" fill="white"/>
</svg>
