<?xml version="1.0" standalone="no"?>
<!DOCTYPE svg PUBLIC "-//W3C//DTD SVG 20010904//EN"
 "http://www.w3.org/TR/2001/REC-SVG-20010904/DTD/svg10.dtd">
<svg version="1.0" xmlns="http://www.w3.org/2000/svg"
 width="512.000000pt" height="512.000000pt" viewBox="0 0 512.000000 512.000000"
 preserveAspectRatio="xMidYMid meet">

<g transform="translate(0.000000,512.000000) scale(0.100000,-0.100000)"
fill="#000000" stroke="none">
<path d="M2377 4950 c-661 -83 -1202 -522 -1407 -1139 -145 -437 -114 -875 91
-1286 109 -221 243 -383 473 -575 228 -190 377 -353 509 -555 67 -103 167
-284 167 -302 0 -5 -35 -20 -77 -32 -206 -60 -361 -169 -425 -299 -33 -66 -32
-178 0 -244 70 -142 245 -255 484 -313 440 -107 955 -9 1156 220 66 75 87 128
87 215 0 98 -26 153 -115 241 -75 74 -201 143 -332 180 -43 12 -78 27 -78 33
0 18 113 216 178 313 134 199 277 358 467 516 152 127 211 184 289 277 435
522 518 1243 212 1843 -240 469 -683 797 -1207 893 -100 18 -376 26 -472 14z
m477 -180 c308 -62 551 -193 777 -419 232 -233 362 -479 426 -806 24 -125 24
-405 0 -530 -60 -306 -192 -564 -396 -779 -36 -38 -118 -112 -181 -164 -367
-305 -631 -669 -793 -1098 -63 -167 -66 -171 -98 -185 -22 -9 -36 -9 -58 0
-34 15 -37 21 -97 181 -160 432 -404 775 -769 1080 -77 64 -177 156 -222 204
-190 201 -328 475 -380 759 -27 142 -24 420 6 557 93 439 349 797 728 1022
159 94 383 171 575 197 110 15 365 5 482 -19z m-540 -3932 c40 -106 55 -130
107 -168 95 -68 223 -59 305 23 30 31 51 67 78 140 22 56 44 97 52 97 29 0
183 -54 246 -87 83 -43 154 -112 169 -164 42 -138 -161 -284 -471 -340 -98
-18 -382 -18 -480 0 -242 43 -439 153 -471 262 -34 113 83 226 311 301 47 15
93 27 103 25 13 -1 28 -27 51 -89z"/>
<path d="M2357 4625 c-576 -94 -1019 -521 -1134 -1093 -24 -120 -24 -384 0
-504 84 -418 354 -775 730 -965 108 -54 289 -110 417 -129 133 -19 314 -15
448 11 542 105 969 534 1079 1085 25 122 24 384 -1 505 -36 173 -103 339 -194
480 -196 305 -505 517 -867 596 -122 27 -359 34 -478 14z m463 -174 c464 -106
807 -455 917 -933 23 -101 23 -373 0 -476 -56 -244 -161 -437 -331 -608 -171
-170 -364 -275 -608 -331 -103 -23 -375 -23 -476 0 -484 111 -835 462 -938
937 -26 118 -26 362 0 480 76 353 299 650 610 816 135 71 261 112 431 138 68
10 312 -4 395 -23z"/>
<path d="M2035 3877 c-82 -35 -155 -66 -162 -70 -22 -14 -31 -62 -18 -94 11
-26 30 -38 139 -84 69 -29 126 -56 126 -59 0 -3 -31 -18 -69 -33 l-69 -29
-112 76 c-61 42 -121 76 -133 76 -12 0 -80 -23 -150 -51 -138 -56 -164 -77
-154 -127 8 -39 279 -540 316 -583 42 -51 104 -79 175 -79 48 0 86 11 222 66
91 37 167 65 169 62 3 -2 -7 -50 -20 -107 -14 -56 -25 -118 -25 -137 0 -42 29
-74 68 -74 30 0 328 115 354 137 9 8 64 108 122 222 l106 208 242 98 c303 123
328 135 370 185 64 74 74 161 32 268 -66 167 -76 171 -357 172 -208 0 -209 0
-283 -30 l-74 -29 -287 39 c-159 22 -308 40 -333 39 -31 0 -91 -20 -195 -62z
m338 -112 c193 -28 185 -21 78 -66 -51 -21 -99 -39 -106 -39 -8 0 -57 19 -111
42 l-97 42 39 17 c49 22 70 22 197 4z m1036 -61 c33 -88 28 -115 -29 -144 -37
-19 -336 -140 -345 -140 -3 0 11 31 30 70 38 75 43 114 20 147 -31 44 -51 39
-342 -79 -153 -62 -285 -120 -294 -129 -9 -9 -30 -74 -48 -145 -17 -70 -34
-131 -38 -135 -17 -17 -415 -169 -441 -169 -16 0 -35 6 -44 13 -16 12 -248
437 -248 454 0 5 21 17 47 26 l47 18 111 -76 c67 -46 120 -75 135 -75 14 1
257 95 540 210 l515 209 181 1 181 0 22 -56z m-691 -548 l-133 -266 -60 -24
c-33 -13 -61 -23 -63 -22 -1 2 24 109 55 238 l57 236 135 54 c75 30 137 54
139 53 2 -2 -57 -122 -130 -269z"/>
<path d="M2320 1680 l0 -80 80 0 80 0 0 80 0 80 -80 0 -80 0 0 -80z"/>
<path d="M2640 1680 l0 -80 80 0 80 0 0 80 0 80 -80 0 -80 0 0 -80z"/>
</g>
</svg>
