<?xml version="1.0" standalone="yes"?>
<svg xmlns="http://www.w3.org/2000/svg" width="512" height="512">
<path style="fill:#ffffff; stroke:none;" d="M0 0L0 512L141 512L141 490C123.276 490 105.161 490.393 88 485.279C76.6703 481.903 65.8282 476.92 56 470.329C-10.0978 426.009 5 341.688 5 273L73 273L73 135C73 110.296 69.7645 83.0979 75.8958 59C83.0608 30.8398 110.726 2.38342 141 1C130.02 -3.60736 110.944 0 99 0L0 0z"/>
<path style="fill:#010101; stroke:none;" d="M73 273L5 273C5 340.985 -10.5032 426.408 55 470.329C64.8282 476.92 75.6703 481.903 87 485.279C104.481 490.488 122.95 490 141 490L141 512L165 512L165 490L346 490L346 512L370 512L370 490C388.49 490 407.059 490.234 425 485.09C435.306 482.135 444.942 477.453 454 471.807C522.087 429.371 506 341.313 506 273L97 273L97 129C97 106.623 92.6208 79.0526 101.465 58C116.767 21.5721 163.79 12.9886 191.91 39.2894C204.079 50.6706 207.108 64.433 210 80C178.966 84.0078 152.897 106.984 144.428 137C140.239 151.848 141 167.721 141 183L302 183C302 167.677 302.776 151.901 298.572 137C290.103 106.984 264.034 84.0078 233 80C233 2.26019 128.416 -30.4485 85.6983 36C69.62 61.01 73 90.6742 73 119L73 273z"/>
<path style="fill:#ffffff; stroke:none;" d="M166 0L166 1C204.714 4.16208 233 43.2893 233 80C264.295 86.0689 290.463 107.567 298.845 139C302.658 153.301 302 168.333 302 183L141 183C141 168.378 140.355 153.249 144.155 139C152.537 107.567 178.705 86.0689 210 80C208.059 64.6424 204.394 50.4655 192.829 39.2894C165.447 12.8267 117.913 20.8806 101.9 56C92.4363 76.7568 97 104.742 97 127L97 273L506 273C506 341.193 521.784 428.593 454 471.189C444.616 477.086 434.706 482.021 424 485.09C406.382 490.142 388.161 490 370 490L370 512L512 512L512 0L166 0M165 159L278 159C276.792 100.465 196.67 82.4222 170.756 135C167.055 142.51 165.173 150.626 165 159M29 296C29 343.737 18.1891 402.618 55.2855 439.715C84.4213 468.85 122.084 466 160 466L363 466C397.149 466 429.96 465.961 455.961 439.961C493.127 402.794 483 343.804 483 296L29 296M165 490L165 512L346 512L346 490L165 490z"/>
</svg>
