<?xml version="1.0" encoding="UTF-8"?>
<!DOCTYPE svg PUBLIC "-//W3C//DTD SVG 1.1//EN" "http://www.w3.org/Graphics/SVG/1.1/DTD/svg11.dtd">
<svg xmlns="http://www.w3.org/2000/svg" version="1.1" width="512px" height="512px" style="shape-rendering:geometricPrecision; text-rendering:geometricPrecision; image-rendering:optimizeQuality; fill-rule:evenodd; clip-rule:evenodd" xmlns:xlink="http://www.w3.org/1999/xlink">
<g><path style="opacity:0.998" fill="#000000" d="M 131.5,15.5 C 214.915,15.0056 298.249,15.5056 381.5,17C 382.126,17.7504 382.626,18.5838 383,19.5C 383.167,50.1667 383.333,80.8333 383.5,111.5C 383.66,142.917 383.16,174.251 382,205.5C 381.25,206.126 380.416,206.626 379.5,207C 338.167,207.167 296.833,207.333 255.5,207.5C 213.417,207.662 171.417,207.162 129.5,206C 128.874,205.25 128.374,204.416 128,203.5C 127.333,142.167 127.333,80.8333 128,19.5C 128.69,17.6498 129.856,16.3164 131.5,15.5 Z M 143.5,31.5 C 218.167,31.5 292.833,31.5 367.5,31.5C 367.5,84.8333 367.5,138.167 367.5,191.5C 292.833,191.5 218.167,191.5 143.5,191.5C 143.5,138.167 143.5,84.8333 143.5,31.5 Z M 167.5,55.5 C 226.167,55.5 284.833,55.5 343.5,55.5C 343.5,92.8333 343.5,130.167 343.5,167.5C 340.491,167.577 338.324,166.244 337,163.5C 318.667,138.833 300.333,114.167 282,89.5C 277.082,86.6157 272.415,86.949 268,90.5C 256.376,105.126 244.376,119.459 232,133.5C 228.5,129.333 225,125.167 221.5,121C 217.5,119 213.5,119 209.5,121C 197,136.167 184.5,151.333 172,166.5C 170.644,167.38 169.144,167.714 167.5,167.5C 167.5,130.167 167.5,92.8333 167.5,55.5 Z M 212.5,80.5 C 221.85,80.3654 224.517,84.532 220.5,93C 211.956,96.3224 208.123,93.4891 209,84.5C 209.69,82.6498 210.856,81.3164 212.5,80.5 Z M 274.5,109.5 C 289.303,128.482 303.97,147.648 318.5,167C 298.833,167.667 279.167,167.667 259.5,167C 254.71,160.541 249.543,154.374 244,148.5C 243.333,147.833 243.333,147.167 244,146.5C 254.379,134.293 264.545,121.96 274.5,109.5 Z M 214.5,141.5 C 215.496,141.414 216.329,141.748 217,142.5C 223.714,150.759 230.548,158.926 237.5,167C 222.833,167.667 208.167,167.667 193.5,167C 200.712,158.626 207.712,150.126 214.5,141.5 Z"/></g>
<g><path style="opacity:0.977" fill="#000000" d="M 155.5,39.5 C 222.916,39.0069 290.249,39.5069 357.5,41C 358.126,41.7504 358.626,42.5838 359,43.5C 359.167,66.1667 359.333,88.8333 359.5,111.5C 359.657,134.919 359.157,158.252 358,181.5C 357.25,182.126 356.416,182.626 355.5,183C 322.167,183.167 288.833,183.333 255.5,183.5C 221.416,183.66 187.416,183.16 153.5,182C 152.874,181.25 152.374,180.416 152,179.5C 151.333,134.167 151.333,88.8333 152,43.5C 152.69,41.6498 153.856,40.3164 155.5,39.5 Z M 167.5,55.5 C 167.5,92.8333 167.5,130.167 167.5,167.5C 169.144,167.714 170.644,167.38 172,166.5C 184.5,151.333 197,136.167 209.5,121C 213.5,119 217.5,119 221.5,121C 225,125.167 228.5,129.333 232,133.5C 244.376,119.459 256.376,105.126 268,90.5C 272.415,86.949 277.082,86.6157 282,89.5C 300.333,114.167 318.667,138.833 337,163.5C 338.324,166.244 340.491,167.577 343.5,167.5C 343.5,130.167 343.5,92.8333 343.5,55.5C 284.833,55.5 226.167,55.5 167.5,55.5 Z M 212.5,80.5 C 210.856,81.3164 209.69,82.6498 209,84.5C 208.123,93.4891 211.956,96.3224 220.5,93C 224.517,84.532 221.85,80.3654 212.5,80.5 Z M 274.5,109.5 C 264.545,121.96 254.379,134.293 244,146.5C 243.333,147.167 243.333,147.833 244,148.5C 249.543,154.374 254.71,160.541 259.5,167C 279.167,167.667 298.833,167.667 318.5,167C 303.97,147.648 289.303,128.482 274.5,109.5 Z M 214.5,141.5 C 207.712,150.126 200.712,158.626 193.5,167C 208.167,167.667 222.833,167.667 237.5,167C 230.548,158.926 223.714,150.759 217,142.5C 216.329,141.748 215.496,141.414 214.5,141.5 Z"/></g>
<g><path style="opacity:0.932" fill="#000000" d="M 208.5,63.5 C 223.367,61.0115 233.534,66.6782 239,80.5C 241.982,95.3761 236.482,105.543 222.5,111C 207.624,113.982 197.457,108.482 192,94.5C 189.146,79.5328 194.646,69.1994 208.5,63.5 Z M 212.5,80.5 C 210.856,81.3164 209.69,82.6498 209,84.5C 208.123,93.4891 211.956,96.3224 220.5,93C 224.517,84.532 221.85,80.3654 212.5,80.5 Z"/></g>
<g><path style="opacity:0.984" fill="#000000" d="M 78.5,239.5 C 129.834,239.333 181.168,239.5 232.5,240C 241.374,242.437 249.041,246.937 255.5,253.5C 261.959,246.937 269.626,242.437 278.5,240C 329.833,239.333 381.167,239.333 432.5,240C 448.667,244.167 458.833,254.333 463,270.5C 463.5,281.495 463.667,292.495 463.5,303.5C 484.263,304.134 497.43,314.467 503,334.5C 503.667,386.833 503.667,439.167 503,491.5C 502.626,492.416 502.126,493.25 501.5,494C 419.581,495.164 337.581,495.664 255.5,495.5C 173.419,495.664 91.4193,495.164 9.5,494C 8.87424,493.25 8.37424,492.416 8,491.5C 7.33333,439.167 7.33333,386.833 8,334.5C 13.5705,314.467 26.7372,304.134 47.5,303.5C 47.3335,292.495 47.5002,281.495 48,270.5C 52.3489,254.319 62.5156,243.985 78.5,239.5 Z M 87.5,255.5 C 132.835,255.333 178.168,255.5 223.5,256C 237.333,257.833 245.167,265.667 247,279.5C 247.667,311.167 247.667,342.833 247,374.5C 242.735,371.118 237.902,368.952 232.5,368C 194.5,367.333 156.5,367.333 118.5,368C 113.098,368.952 108.265,371.118 104,374.5C 103.667,361.167 103.333,347.833 103,334.5C 97.4295,314.467 84.2628,304.134 63.5,303.5C 63.3336,295.493 63.5003,287.493 64,279.5C 66.0121,265.656 73.8455,257.656 87.5,255.5 Z M 287.5,255.5 C 334.867,255.03 382.2,255.53 429.5,257C 440.204,260.705 446.037,268.205 447,279.5C 447.5,287.493 447.666,295.493 447.5,303.5C 426.737,304.134 413.57,314.467 408,334.5C 407.667,347.833 407.333,361.167 407,374.5C 402.735,371.118 397.902,368.952 392.5,368C 354.5,367.333 316.5,367.333 278.5,368C 273.098,368.952 268.265,371.118 264,374.5C 263.042,340.799 263.376,307.133 265,273.5C 268.866,262.786 276.366,256.786 287.5,255.5 Z M 47.5,319.5 C 55.9785,319.05 64.3119,319.883 72.5,322C 79.1487,325.314 83.6487,330.481 86,337.5C 87.4704,384.8 87.9704,432.133 87.5,479.5C 66.1667,479.5 44.8333,479.5 23.5,479.5C 23.3333,434.165 23.5,388.832 24,343.5C 26.0121,329.656 33.8455,321.656 47.5,319.5 Z M 447.5,319.5 C 455.979,319.05 464.312,319.883 472.5,322C 479.149,325.314 483.649,330.481 486,337.5C 487.47,384.8 487.97,432.133 487.5,479.5C 466.167,479.5 444.833,479.5 423.5,479.5C 423.333,434.165 423.5,388.832 424,343.5C 426.012,329.656 433.845,321.656 447.5,319.5 Z M 127.5,383.5 C 159.502,383.333 191.502,383.5 223.5,384C 234.795,384.963 242.295,390.796 246,401.5C 247.331,411.45 247.831,421.45 247.5,431.5C 199.5,431.5 151.5,431.5 103.5,431.5C 103.334,423.493 103.5,415.493 104,407.5C 106.012,393.656 113.845,385.656 127.5,383.5 Z M 287.5,383.5 C 319.502,383.333 351.502,383.5 383.5,384C 394.795,384.963 402.295,390.796 406,401.5C 407.331,411.45 407.831,421.45 407.5,431.5C 359.5,431.5 311.5,431.5 263.5,431.5C 263.334,423.493 263.5,415.493 264,407.5C 266.012,393.656 273.845,385.656 287.5,383.5 Z M 103.5,447.5 C 204.833,447.5 306.167,447.5 407.5,447.5C 407.5,458.167 407.5,468.833 407.5,479.5C 306.167,479.5 204.833,479.5 103.5,479.5C 103.5,468.833 103.5,458.167 103.5,447.5 Z"/></g>
</svg>
