<?xml version="1.0" standalone="no"?>
<!DOCTYPE svg PUBLIC "-//W3C//DTD SVG 20010904//EN"
 "http://www.w3.org/TR/2001/REC-SVG-20010904/DTD/svg10.dtd">
<svg version="1.0" xmlns="http://www.w3.org/2000/svg"
 width="512.000000pt" height="512.000000pt" viewBox="0 0 512.000000 512.000000"
 preserveAspectRatio="xMidYMid meet">

<g transform="translate(0.000000,512.000000) scale(0.100000,-0.100000)"
fill="#000000" stroke="none">
<path d="M2377 4950 c-575 -73 -1063 -413 -1317 -920 -313 -624 -210 -1369
262 -1884 39 -43 135 -132 212 -196 228 -190 377 -353 509 -555 67 -103 167
-284 167 -302 0 -5 -35 -20 -77 -32 -206 -60 -361 -169 -425 -299 -33 -66 -32
-178 0 -244 70 -142 245 -255 484 -313 440 -107 955 -9 1156 220 66 75 87 128
87 215 0 58 -5 86 -23 122 -64 130 -219 239 -425 299 -42 12 -77 26 -77 31 0
14 49 106 113 213 142 237 323 445 561 645 149 124 204 178 279 273 418 522
493 1231 193 1820 -240 469 -683 797 -1207 893 -100 18 -376 26 -472 14z m360
-160 c249 -33 464 -113 667 -247 136 -89 328 -281 419 -419 299 -451 338
-1020 102 -1508 -97 -203 -238 -375 -450 -549 -357 -295 -616 -652 -779 -1072
-26 -66 -54 -137 -63 -157 -31 -73 -115 -73 -147 0 -8 20 -39 97 -67 171 -159
414 -397 743 -754 1041 -293 245 -440 443 -539 729 -64 184 -80 281 -80 496 0
159 4 207 23 295 67 313 199 558 421 780 207 208 437 339 711 405 182 43 374
56 536 35z m-422 -3956 c60 -153 123 -208 245 -208 122 0 185 55 245 208 21
55 43 96 51 96 7 0 50 -12 96 -26 228 -71 353 -191 319 -303 -32 -110 -228
-218 -471 -262 -98 -18 -382 -18 -480 0 -242 43 -439 153 -471 262 -34 113 83
226 311 300 47 16 92 28 101 29 12 0 28 -28 54 -96z"/>
<path d="M2357 4625 c-576 -94 -1019 -521 -1134 -1093 -24 -120 -24 -384 0
-504 84 -418 354 -775 730 -965 108 -54 289 -110 417 -129 133 -19 314 -15
448 11 542 105 969 534 1079 1085 25 122 24 384 -1 505 -114 549 -517 958
-1061 1076 -122 27 -359 34 -478 14z m463 -174 c464 -106 807 -455 917 -933
23 -101 23 -373 0 -476 -56 -244 -161 -437 -331 -608 -171 -170 -364 -275
-608 -331 -103 -23 -375 -23 -476 0 -484 111 -835 462 -938 937 -26 118 -26
362 0 480 76 353 299 650 610 816 135 71 261 112 431 138 68 10 312 -4 395
-23z"/>
<path d="M2265 4055 c-25 -24 -25 -24 -25 -240 l0 -215 -215 0 c-216 0 -216 0
-240 -25 l-25 -24 0 -271 0 -271 25 -24 c24 -25 24 -25 240 -25 l215 0 0 -215
c0 -216 0 -216 25 -240 l24 -25 271 0 271 0 24 25 c25 24 25 24 25 240 l0 215
215 0 c216 0 216 0 240 25 l25 24 0 271 0 271 -25 24 c-24 25 -24 25 -240 25
l-215 0 0 215 c0 216 0 216 -25 240 l-24 25 -271 0 -271 0 -24 -25z m455 -350
c0 -216 0 -216 25 -240 24 -25 24 -25 240 -25 l215 0 0 -160 0 -160 -215 0
c-288 0 -265 23 -265 -265 l0 -215 -160 0 -160 0 0 215 c0 288 23 265 -265
265 l-215 0 0 160 0 160 215 0 c288 0 265 -23 265 265 l0 215 160 0 160 0 0
-215z"/>
<path d="M2320 1680 l0 -80 80 0 80 0 0 80 0 80 -80 0 -80 0 0 -80z"/>
<path d="M2640 1680 l0 -80 80 0 80 0 0 80 0 80 -80 0 -80 0 0 -80z"/>
</g>
</svg>
