<?xml version="1.0" standalone="no"?>
<!DOCTYPE svg PUBLIC "-//W3C//DTD SVG 20010904//EN"
 "http://www.w3.org/TR/2001/REC-SVG-20010904/DTD/svg10.dtd">
<svg version="1.0" xmlns="http://www.w3.org/2000/svg"
 width="512.000000pt" height="512.000000pt" viewBox="0 0 512.000000 512.000000"
 preserveAspectRatio="xMidYMid meet">

<g transform="translate(0.000000,512.000000) scale(0.100000,-0.100000)"
fill="#000000" stroke="none">
<path d="M1360 4830 c-348 -49 -662 -276 -816 -590 -86 -174 -124 -379 -105
-561 16 -150 43 -247 106 -374 65 -132 128 -218 235 -318 44 -42 80 -79 80
-82 0 -4 -194 -469 -430 -1034 -237 -564 -430 -1036 -430 -1049 0 -13 11 -34
25 -47 l24 -25 2511 0 2511 0 24 25 c14 13 25 34 25 47 0 35 -939 2270 -962
2291 -19 16 -77 17 -909 17 -489 0 -889 2 -889 4 0 2 16 27 35 56 127 189 192
456 166 686 -29 256 -133 474 -308 649 -193 191 -442 300 -713 310 -63 2 -144
0 -180 -5z m340 -176 c311 -70 558 -295 658 -596 128 -387 -6 -791 -344 -1034
-22 -16 -146 -142 -274 -279 -129 -138 -237 -250 -240 -250 -3 0 -111 112
-238 248 -147 158 -261 270 -313 309 -188 141 -310 352 -346 597 -46 311 90
644 340 834 131 100 276 163 432 187 81 12 235 5 325 -16z m810 -2219 l0 -535
-177 -1 c-98 -1 -526 -6 -951 -12 -424 -7 -772 -9 -772 -6 0 11 372 894 380
902 4 5 108 -99 230 -230 122 -131 234 -244 248 -252 49 -26 71 -8 337 279
140 151 287 301 327 332 l73 57 153 0 152 1 0 -535z m532 405 c2 -108 6 -132
21 -147 16 -17 57 -18 569 -23 l552 -5 77 -185 78 -185 -632 -5 c-348 -3 -633
-6 -634 -8 -1 -1 -9 -15 -18 -32 -13 -25 -15 -116 -15 -685 l0 -655 -185 0
-185 0 0 205 c0 205 0 206 -25 230 l-24 25 -1111 0 c-610 0 -1110 3 -1110 8 0
4 30 80 67 169 l68 162 80 5 c44 3 501 10 1015 16 514 6 949 13 967 16 18 3
41 16 53 31 20 25 20 37 20 609 l0 584 184 0 184 0 4 -130z m1041 65 c15 -36
27 -68 27 -70 0 -3 -205 -5 -455 -5 l-455 0 0 70 0 70 428 0 428 0 27 -65z
m345 -822 c19 -47 444 -1061 475 -1135 l16 -38 -860 0 -859 0 0 610 0 610 604
0 604 0 20 -47z m-1918 -1023 l0 -150 -1154 0 -1155 0 56 133 c30 72 57 140
60 150 5 16 66 17 1099 17 l1094 0 0 -150z"/>
<path d="M1425 4444 c-11 -2 -45 -9 -75 -15 -189 -38 -366 -179 -454 -361 -56
-118 -70 -179 -70 -303 0 -183 65 -337 199 -471 131 -132 289 -197 475 -197
117 0 198 20 310 75 165 81 298 249 347 438 25 98 22 247 -6 340 -72 235 -255
417 -480 475 -64 16 -209 28 -246 19z m245 -188 c231 -80 377 -319 341 -558
-16 -103 -74 -217 -148 -291 -250 -250 -668 -180 -824 138 -88 180 -70 376 49
533 139 184 367 253 582 178z"/>
</g>
</svg>
