<?xml version="1.0" standalone="no"?>
<!DOCTYPE svg PUBLIC "-//W3C//DTD SVG 20010904//EN"
 "http://www.w3.org/TR/2001/REC-SVG-20010904/DTD/svg10.dtd">
<svg version="1.0" xmlns="http://www.w3.org/2000/svg"
 width="1920.000000pt" height="1920.000000pt" viewBox="0 0 1920.000000 1920.000000"
 preserveAspectRatio="xMidYMid meet">

<g transform="translate(0.000000,1920.000000) scale(0.100000,-0.100000)"
fill="#000000" stroke="none">
<path d="M6753 13619 c-99 -38 -108 -51 -484 -704 -193 -335 -556 -964 -806
-1397 -355 -616 -456 -799 -465 -841 -14 -68 7 -234 47 -372 126 -432 494
-798 927 -922 l98 -28 2 -1795 3 -1795 30 -53 c32 -59 66 -91 129 -125 l41
-22 3320 0 3320 0 45 21 c56 27 113 83 142 143 l23 46 3 1792 2 1791 53 12
c90 21 249 88 346 145 339 200 572 527 650 911 33 163 36 221 14 284 -10 30
-154 289 -320 575 -165 286 -524 907 -797 1380 -374 647 -507 869 -537 897
-22 20 -65 46 -95 58 -55 20 -60 20 -2847 19 -2761 0 -2793 0 -2844 -20z
m5692 -1021 c148 -255 425 -735 618 -1068 192 -333 397 -686 454 -785 l105
-179 -17 -66 c-38 -144 -142 -313 -248 -401 -157 -131 -323 -192 -522 -191
-295 1 -559 162 -694 421 -48 93 -67 156 -86 284 -17 112 -37 156 -92 208 -66
63 -117 84 -208 84 -67 0 -88 -5 -131 -27 -57 -30 -109 -84 -131 -137 -8 -20
-22 -78 -29 -130 -29 -192 -96 -332 -218 -460 -159 -165 -344 -244 -571 -243
-340 1 -633 213 -745 538 -11 30 -26 103 -35 161 -18 118 -36 162 -92 214 -66
63 -117 84 -208 84 -67 0 -88 -5 -131 -27 -53 -28 -103 -77 -129 -127 -8 -16
-22 -75 -30 -132 -32 -213 -96 -342 -239 -484 -157 -156 -328 -227 -546 -227
-272 0 -508 124 -654 346 -80 121 -115 216 -135 369 -13 96 -29 133 -77 187
-109 121 -293 132 -412 25 -60 -54 -87 -113 -101 -221 -49 -379 -329 -662
-698 -704 -296 -33 -589 107 -752 360 -42 65 -94 189 -106 252 -8 40 -25 8
377 703 57 99 319 552 582 1008 l478 827 2578 0 2578 0 267 -462z m-4950
-2810 c59 -72 182 -178 280 -240 160 -104 338 -172 523 -203 151 -25 398 -17
538 19 266 67 487 196 679 398 l86 90 41 -49 c204 -237 500 -404 807 -457 123
-21 339 -21 462 0 280 48 518 173 733 385 l118 117 31 -36 c171 -203 461 -386
705 -442 l52 -12 0 -1609 0 -1609 -330 0 -330 0 -2 1088 -3 1087 -25 49 c-14
27 -44 66 -68 87 -83 72 -35 69 -1013 69 l-877 0 -63 -32 c-43 -23 -73 -47
-96 -79 -65 -91 -63 -52 -63 -1216 l0 -1053 -1515 0 -1515 0 0 1608 0 1607
105 33 c229 71 402 177 570 348 61 61 112 112 115 112 3 1 28 -26 55 -60z
m3815 -2743 l0 -905 -525 0 -525 0 0 898 c0 494 3 902 7 905 3 4 240 7 525 7
l518 0 0 -905z"/>
<path d="M7920 12721 c-76 -23 -149 -80 -180 -141 -10 -20 -34 -81 -53 -135
-19 -55 -95 -266 -168 -470 -127 -355 -133 -373 -133 -450 -1 -64 4 -88 21
-121 34 -63 66 -97 125 -129 47 -27 62 -30 138 -30 69 0 93 5 127 23 51 27
106 82 128 128 9 20 93 252 187 517 167 473 170 483 166 548 -9 121 -87 220
-201 254 -54 16 -116 18 -157 6z"/>
<path d="M9509 12714 c-60 -18 -140 -90 -171 -152 l-23 -47 0 -555 0 -555 27
-51 c52 -100 147 -157 258 -157 111 0 206 57 258 157 l27 51 3 534 c3 627 6
609 -87 702 -84 84 -180 108 -292 73z"/>
<path d="M11122 12715 c-120 -37 -201 -146 -202 -273 0 -44 30 -137 169 -532
93 -263 177 -495 186 -514 26 -54 103 -121 164 -141 105 -34 242 0 307 78 53
63 69 107 68 192 0 74 -6 96 -78 295 -43 118 -118 330 -168 470 -50 140 -99
271 -109 291 -57 113 -210 174 -337 134z"/>
<path d="M7440 8499 c-60 -27 -117 -83 -146 -144 l-24 -50 0 -655 c0 -626 1
-657 20 -698 32 -70 69 -110 133 -142 l60 -30 681 0 681 0 50 24 c64 30 112
78 141 141 l24 50 0 655 0 655 -24 50 c-29 61 -86 117 -146 144 -44 20 -63 21
-725 21 -662 0 -681 -1 -725 -21z m1045 -849 l0 -295 -320 0 -320 0 -3 285
c-1 157 0 290 3 298 3 10 72 12 322 10 l318 -3 0 -295z"/>
</g>
</svg>
