<?xml version="1.0" standalone="no"?>
<!DOCTYPE svg PUBLIC "-//W3C//DTD SVG 20010904//EN"
 "http://www.w3.org/TR/2001/REC-SVG-20010904/DTD/svg10.dtd">
<svg version="1.0" xmlns="http://www.w3.org/2000/svg"
 width="512.000000pt" height="512.000000pt" viewBox="0 0 512.000000 512.000000"
 preserveAspectRatio="xMidYMid meet">

<g transform="translate(0.000000,512.000000) scale(0.100000,-0.100000)"
fill="#000000" stroke="none">
<path d="M2486 4543 c-16 -8 -345 -298 -731 -644 -476 -425 -706 -638 -715
-660 -36 -85 -9 -153 110 -281 77 -84 121 -106 187 -93 l33 6 0 -261 0 -260
-105 0 c-85 0 -113 -4 -143 -19 -45 -24 -1069 -961 -1097 -1005 -19 -29 -20
-51 -23 -325 -4 -334 0 -359 66 -409 l35 -27 2457 0 2457 0 35 27 c66 50 70
75 66 409 -3 274 -4 296 -23 325 -30 47 -1055 995 -1092 1010 -21 9 -73 14
-143 14 l-110 0 0 260 0 261 33 -6 c68 -13 110 9 194 100 43 47 87 102 97 122
24 44 25 117 2 160 -8 17 -85 93 -171 170 l-155 138 0 321 c0 316 0 322 -22
354 -50 73 -58 75 -273 75 -180 0 -195 -1 -221 -21 -49 -36 -67 -69 -73 -135
l-6 -62 -245 220 c-135 121 -260 228 -277 237 -40 20 -109 20 -147 -1z m752
-760 c369 -332 674 -607 677 -613 6 -10 -90 -130 -104 -130 -3 0 -278 243
-610 540 -570 511 -605 540 -641 540 -35 0 -70 -29 -640 -540 -332 -297 -607
-540 -611 -540 -9 0 -104 117 -104 129 0 5 239 222 530 483 292 261 595 534
675 606 80 72 148 130 151 129 4 -1 308 -273 677 -604z m342 140 l0 -217 -32
30 c-18 17 -75 68 -125 114 l-93 83 0 103 0 104 125 0 125 0 0 -217z m-505
-458 l504 -450 0 -605 c0 -460 -3 -609 -12 -621 -28 -36 -52 -39 -316 -39
l-260 0 -3 373 c-3 333 -5 376 -21 412 -25 55 -73 103 -132 131 -48 23 -59 24
-275 24 -216 0 -227 -1 -275 -24 -59 -28 -107 -76 -132 -131 -16 -36 -18 -79
-21 -412 l-3 -373 -260 0 c-264 0 -288 3 -316 39 -9 12 -12 160 -12 621 l0
605 507 452 c279 249 511 452 515 450 4 -1 234 -205 512 -452z m-288 -969 l28
-24 0 -359 0 -358 -255 0 -255 0 0 358 0 359 28 24 c28 24 31 24 227 24 196 0
199 0 227 -24z m-1417 -532 l5 -211 30 -49 c34 -55 111 -107 172 -118 21 -3
463 -6 983 -6 520 0 962 3 983 6 61 11 138 63 172 118 l30 49 5 211 5 211 91
3 91 3 504 -468 504 -468 -1193 -3 c-655 -1 -1728 -1 -2384 0 l-1192 3 509
468 510 467 85 -2 85 -3 5 -211z m3580 -1064 l0 -170 -2390 0 -2390 0 0 170 0
170 2390 0 2390 0 0 -170z"/>
</g>
</svg>
