<?xml version="1.0" encoding="UTF-8"?>
<!DOCTYPE svg PUBLIC "-//W3C//DTD SVG 1.1//EN" "http://www.w3.org/Graphics/SVG/1.1/DTD/svg11.dtd">
<svg xmlns="http://www.w3.org/2000/svg" version="1.1" width="512px" height="512px" style="shape-rendering:geometricPrecision; text-rendering:geometricPrecision; image-rendering:optimizeQuality; fill-rule:evenodd; clip-rule:evenodd" xmlns:xlink="http://www.w3.org/1999/xlink">
<g><path style="opacity:1" fill="#fefffe" d="M 392.5,-0.5 C 401.167,-0.5 409.833,-0.5 418.5,-0.5C 461.154,7.98728 486.654,33.6539 495,76.5C 498.705,121.278 480.538,153.445 440.5,173C 400.589,187.229 366.089,179.063 337,148.5C 287.584,177.79 238.418,207.456 189.5,237.5C 196.247,255.839 197.247,274.506 192.5,293.5C 192.608,294.442 192.941,295.275 193.5,296C 239.922,319.961 286.422,343.794 333,367.5C 361.957,333.076 397.79,323.242 440.5,338C 480.538,357.555 498.705,389.722 495,434.5C 486.654,477.346 461.154,503.013 418.5,511.5C 409.833,511.5 401.167,511.5 392.5,511.5C 349.846,503.013 324.346,477.346 316,434.5C 314.536,421.366 315.702,408.532 319.5,396C 272.902,371.45 226.069,347.284 179,323.5C 149.967,358.618 113.8,368.784 70.5,354C 30.4618,334.445 12.2951,302.278 16,257.5C 24.1667,214.667 49.6667,189.167 92.5,181C 124.506,177.346 151.506,187.18 173.5,210.5C 222.167,181.167 270.833,151.833 319.5,122.5C 319.833,121.833 320.167,121.167 320.5,120.5C 308.176,79.9446 317.843,45.778 349.5,18C 362.499,8.49439 376.833,2.32773 392.5,-0.5 Z"/></g>
</svg>
