<?xml version="1.0" standalone="no"?>
<!DOCTYPE svg PUBLIC "-//W3C//DTD SVG 20010904//EN"
 "http://www.w3.org/TR/2001/REC-SVG-20010904/DTD/svg10.dtd">
<svg version="1.0" xmlns="http://www.w3.org/2000/svg"
 width="512.000000pt" height="512.000000pt" viewBox="0 0 512.000000 512.000000"
 preserveAspectRatio="xMidYMid meet">

<g transform="translate(0.000000,512.000000) scale(0.100000,-0.100000)"
fill="#000000" stroke="none">
<path d="M2377 4950 c-661 -83 -1202 -522 -1407 -1139 -145 -437 -114 -875 91
-1286 109 -221 243 -383 473 -575 228 -190 377 -353 509 -555 67 -103 167
-284 167 -302 0 -5 -35 -20 -77 -32 -206 -60 -361 -169 -425 -299 -33 -66 -32
-178 0 -244 70 -142 245 -255 484 -313 440 -107 955 -9 1156 220 66 75 87 128
87 215 0 98 -26 153 -115 241 -75 74 -201 143 -332 180 -43 12 -78 26 -78 31
0 14 49 106 113 213 137 229 321 442 532 618 152 127 211 183 289 277 435 522
518 1243 212 1843 -240 469 -683 797 -1207 893 -100 18 -376 26 -472 14z m477
-180 c308 -62 551 -193 777 -419 232 -233 362 -479 426 -806 24 -125 24 -405
0 -530 -60 -306 -192 -564 -396 -779 -36 -38 -118 -112 -181 -164 -367 -305
-631 -669 -793 -1098 -63 -167 -66 -171 -98 -185 -22 -9 -36 -9 -58 0 -34 15
-37 21 -97 181 -160 432 -404 775 -769 1080 -77 64 -177 156 -222 204 -190
201 -328 475 -380 759 -27 142 -24 420 6 557 93 439 349 797 728 1022 159 94
383 171 575 197 110 15 365 5 482 -19z m-540 -3932 c40 -106 55 -130 107 -167
82 -60 196 -60 278 0 51 37 67 61 107 167 18 48 37 88 44 90 19 7 182 -48 252
-85 83 -43 154 -112 169 -164 42 -138 -161 -284 -471 -340 -98 -18 -382 -18
-480 0 -242 43 -439 153 -471 262 -34 113 83 226 311 301 47 15 93 27 103 25
13 -1 28 -27 51 -89z"/>
<path d="M2357 4625 c-576 -94 -1019 -521 -1134 -1093 -24 -120 -24 -384 0
-504 84 -418 354 -775 730 -965 108 -54 289 -110 417 -129 133 -19 314 -15
448 11 542 105 969 534 1079 1085 25 122 24 384 -1 505 -36 173 -103 339 -194
480 -196 305 -505 517 -867 596 -122 27 -359 34 -478 14z m463 -174 c464 -106
807 -455 917 -933 23 -101 23 -373 0 -476 -56 -244 -161 -437 -331 -608 -171
-170 -364 -275 -608 -331 -103 -23 -375 -23 -476 0 -484 111 -835 462 -938
937 -26 118 -26 362 0 480 76 353 299 650 610 816 135 71 261 112 431 138 68
10 312 -4 395 -23z"/>
<path d="M1760 4000 l0 -80 63 0 63 0 60 -62 61 -63 79 -515 c92 -602 76 -560
201 -560 74 -1 76 -2 48 -14 -101 -44 -125 -178 -46 -257 112 -113 296 -12
267 146 -8 42 -50 93 -91 111 -26 12 -4 13 175 13 179 0 201 -1 175 -13 -101
-44 -125 -178 -46 -257 112 -113 296 -12 267 146 -8 42 -50 93 -91 111 -28 12
-26 13 48 14 70 0 81 -3 102 -25 14 -13 25 -31 25 -40 0 -12 15 -15 80 -15 90
0 90 0 68 74 -16 55 -99 138 -154 154 -29 8 -152 12 -423 12 -209 0 -381 1
-382 3 0 1 -6 37 -13 80 l-12 77 393 0 394 0 22 23 c21 20 27 54 66 368 45
365 45 375 1 399 -12 6 -194 10 -508 10 l-490 0 -6 23 c-3 12 -50 66 -104 120
l-99 97 -97 0 -96 0 0 -80z m640 -400 l0 -80 -94 0 c-106 0 -98 -8 -111 103
l-7 57 106 0 106 0 0 -80z m320 0 l0 -80 -80 0 -80 0 0 80 0 80 80 0 80 0 0
-80z m306 40 c-3 -22 -9 -58 -12 -80 l-6 -40 -64 0 -64 0 0 80 0 80 76 0 76 0
-6 -40z m-626 -360 l0 -80 -69 0 c-78 0 -74 -4 -87 103 l-7 57 82 0 81 0 0
-80z m320 0 l0 -80 -80 0 -80 0 0 80 0 80 80 0 80 0 0 -80z m266 40 c-3 -22
-9 -58 -12 -80 -6 -40 -6 -40 -50 -40 l-44 0 0 80 0 80 56 0 56 0 -6 -40z"/>
<path d="M2320 1680 l0 -80 80 0 80 0 0 80 0 80 -80 0 -80 0 0 -80z"/>
<path d="M2640 1680 l0 -80 80 0 80 0 0 80 0 80 -80 0 -80 0 0 -80z"/>
</g>
</svg>
