<?xml version="1.0" encoding="UTF-8"?>
<!DOCTYPE svg PUBLIC "-//W3C//DTD SVG 1.1//EN" "http://www.w3.org/Graphics/SVG/1.1/DTD/svg11.dtd">
<svg xmlns="http://www.w3.org/2000/svg" version="1.1" width="512px" height="512px" style="shape-rendering:geometricPrecision; text-rendering:geometricPrecision; image-rendering:optimizeQuality; fill-rule:evenodd; clip-rule:evenodd" xmlns:xlink="http://www.w3.org/1999/xlink">
<g><path style="opacity:0.939" fill="#000000" d="M 291.5,50.5 C 320.026,52.5272 336.026,67.6939 339.5,96C 337.817,103.451 333.484,105.451 326.5,102C 324.878,94.2464 322.378,86.7464 319,79.5C 305.817,63.7493 290.651,61.5826 273.5,73C 267.465,78.9036 263.965,86.0703 263,94.5C 262.5,114.164 262.333,133.831 262.5,153.5C 309.5,153.5 356.5,153.5 403.5,153.5C 403.065,130.794 403.565,108.128 405,85.5C 411.718,63.6238 426.552,51.9572 449.5,50.5C 476.158,52.9925 491.158,67.4925 494.5,94C 494.969,101.941 491.303,104.941 483.5,103C 480.064,99.2435 478.564,94.7435 479,89.5C 471.695,69.7639 457.861,62.5972 437.5,68C 428.849,71.9841 423.015,78.4841 420,87.5C 418.511,169.789 418.011,252.122 418.5,334.5C 424.595,333.873 430.595,332.706 436.5,331C 445.167,327.667 453.833,324.333 462.5,321C 472.973,317.933 483.639,316.933 494.5,318C 499.815,322.381 499.815,326.714 494.5,331C 486.872,332.141 479.205,333.141 471.5,334C 459.576,338.53 447.576,342.864 435.5,347C 418.755,350.542 402.088,350.209 385.5,346C 374.608,341.722 363.608,337.722 352.5,334C 340.167,332 327.833,332 315.5,334C 304.412,337.709 293.412,341.709 282.5,346C 261.189,351.38 240.189,350.38 219.5,343C 190.338,328.722 161.338,329.055 132.5,344C 112.354,350.446 92.0207,351.113 71.5,346C 61.8333,342.333 52.1667,338.667 42.5,335C 33.877,333.29 25.2103,331.957 16.5,331C 11.1852,326.714 11.1852,322.381 16.5,318C 29.546,316.768 42.2127,318.435 54.5,323C 83.8333,338.333 113.167,338.333 142.5,323C 163.304,316.489 184.304,315.822 205.5,321C 213.946,324.057 222.279,327.39 230.5,331C 236.405,332.706 242.405,333.873 248.5,334.5C 248.333,251.833 248.5,169.166 249,86.5C 255.136,64.8535 269.303,52.8535 291.5,50.5 Z M 262.5,167.5 C 309.5,167.5 356.5,167.5 403.5,167.5C 403.5,181.167 403.5,194.833 403.5,208.5C 356.5,208.5 309.5,208.5 262.5,208.5C 262.5,194.833 262.5,181.167 262.5,167.5 Z M 262.5,223.5 C 309.5,223.5 356.5,223.5 403.5,223.5C 403.5,236.833 403.5,250.167 403.5,263.5C 356.5,263.5 309.5,263.5 262.5,263.5C 262.5,250.167 262.5,236.833 262.5,223.5 Z M 262.5,278.5 C 309.5,278.5 356.5,278.5 403.5,278.5C 403.667,297.17 403.5,315.836 403,334.5C 396.807,333.26 390.641,331.76 384.5,330C 349.694,313.079 315.028,313.412 280.5,331C 274.595,332.706 268.595,333.873 262.5,334.5C 262.5,315.833 262.5,297.167 262.5,278.5 Z"/></g>
<g><path style="opacity:0.922" fill="#000000" d="M 17.5,372.5 C 26.2612,372.345 34.9278,373.178 43.5,375C 54.376,378.438 65.0427,382.438 75.5,387C 89.4292,389.902 103.429,390.235 117.5,388C 128.376,384.562 139.043,380.562 149.5,376C 167.833,371.333 186.167,371.333 204.5,376C 214.957,380.562 225.624,384.562 236.5,388C 249.167,390 261.833,390 274.5,388C 285.311,384.396 295.977,380.396 306.5,376C 333.319,369.26 358.986,372.26 383.5,385C 398.909,389.723 414.575,390.723 430.5,388C 441.719,384.594 452.719,380.594 463.5,376C 473.347,373.352 483.347,372.352 493.5,373C 500.167,377.667 500.167,382.333 493.5,387C 477.874,386.906 463.208,390.573 449.5,398C 426.72,405.873 403.72,406.54 380.5,400C 372.279,396.39 363.946,393.057 355.5,390C 341.158,386.696 326.825,386.696 312.5,390C 300.463,395.186 288.129,399.519 275.5,403C 260.44,405.212 245.44,404.879 230.5,402C 219.833,398 209.167,394 198.5,390C 184.171,386.667 169.838,386.667 155.5,390C 144.977,394.396 134.311,398.396 123.5,402C 106.833,405.333 90.1667,405.333 73.5,402C 62.8333,398 52.1667,394 41.5,390C 33.6131,388.151 25.6131,387.151 17.5,387C 10.9387,382.178 10.9387,377.345 17.5,372.5 Z"/></g>
<g><path style="opacity:0.928" fill="#000000" d="M 16.5,428.5 C 29.9318,427.321 42.9318,429.154 55.5,434C 76.7681,445.617 99.1014,448.284 122.5,442C 133.195,437.152 144.195,433.152 155.5,430C 169.833,428 184.167,428 198.5,430C 209.805,433.152 220.805,437.152 231.5,442C 254.889,448.23 277.222,445.564 298.5,434C 304.709,431.864 311.042,430.198 317.5,429C 330.209,428.126 342.876,428.46 355.5,430C 367.93,434.048 380.263,438.381 392.5,443C 406.919,446.518 421.253,446.184 435.5,442C 444.167,438.667 452.833,435.333 461.5,432C 472.289,428.777 483.289,427.777 494.5,429C 499.815,433.286 499.815,437.619 494.5,442C 486.436,442.508 478.436,443.508 470.5,445C 458.716,449.89 446.716,454.224 434.5,458C 419.827,461.283 405.16,461.283 390.5,458C 379.195,454.848 368.195,450.848 357.5,446C 342.924,441.806 328.257,441.473 313.5,445C 301.706,449.897 289.706,454.23 277.5,458C 261.421,461.507 245.421,461.173 229.5,457C 217.477,451.824 205.143,447.49 192.5,444C 179.348,441.699 166.348,442.366 153.5,446C 142.805,450.848 131.805,454.848 120.5,458C 105.836,461.282 91.1692,461.282 76.5,458C 64.2941,454.23 52.2941,449.897 40.5,445C 32.564,443.508 24.564,442.508 16.5,442C 11.266,437.46 11.266,432.96 16.5,428.5 Z"/></g>
</svg>
